<?xml version="1.0" encoding="UTF-8" standalone="no"?>
<!DOCTYPE svg PUBLIC "-//W3C//DTD SVG 1.1//EN"
 "http://www.w3.org/Graphics/SVG/1.1/DTD/svg11.dtd">
<!-- Generated by graphviz version 2.36.0 (20140111.2315)
 -->
<!-- Title: models_diagram Pages: 1 -->
<svg width="2683pt" height="1832pt"
 viewBox="0.00 0.00 2682.57 1832.00" xmlns="http://www.w3.org/2000/svg" xmlns:xlink="http://www.w3.org/1999/xlink">
<g id="graph0" class="graph" transform="scale(1 1) rotate(0) translate(4 1828)">
<title>models_diagram</title>
<polygon fill="none" stroke="none" points="-4,4 -4,-1828 2678.57,-1828 2678.57,4 -4,4"/>
<!-- _diagram_info -->
<g id="node1" class="node"><title>_diagram_info</title>
<text text-anchor="start" x="127.571" y="-1659.6" font-family="Times,serif" font-size="13.00">Models diagram</text>
<text text-anchor="start" x="127.571" y="-1645.6" font-family="Times,serif" font-size="13.00">Date: Jan 26 2016 &#45; 02:01</text>
<text text-anchor="start" x="127.571" y="-1631.6" font-family="Times,serif" font-size="13.00">Migration version: 104</text>
<text text-anchor="start" x="127.571" y="-1617.6" font-family="Times,serif" font-size="13.00">Generated by RailRoady 1.4.2</text>
<text text-anchor="start" x="127.571" y="-1603.6" font-family="Times,serif" font-size="13.00">http://railroady.prestonlee.com</text>
</g>
<!-- User -->
<g id="node2" class="node"><title>User</title>
<path fill="none" stroke="black" d="M299.071,-1137C299.071,-1137 502.071,-1137 502.071,-1137 508.071,-1137 514.071,-1143 514.071,-1149 514.071,-1149 514.071,-1381 514.071,-1381 514.071,-1387 508.071,-1393 502.071,-1393 502.071,-1393 299.071,-1393 299.071,-1393 293.071,-1393 287.071,-1387 287.071,-1381 287.071,-1381 287.071,-1149 287.071,-1149 287.071,-1143 293.071,-1137 299.071,-1137"/>
<text text-anchor="middle" x="400.571" y="-1377.8" font-family="Times,serif" font-size="14.00">User</text>
<polyline fill="none" stroke="black" points="287.071,-1370 514.071,-1370 "/>
<text text-anchor="start" x="295.071" y="-1354.8" font-family="Times,serif" font-size="14.00">id :INTEGER</text>
<text text-anchor="start" x="295.071" y="-1339.8" font-family="Times,serif" font-size="14.00">login :varchar(255)</text>
<text text-anchor="start" x="295.071" y="-1324.8" font-family="Times,serif" font-size="14.00">password :varchar(255)</text>
<text text-anchor="start" x="295.071" y="-1309.8" font-family="Times,serif" font-size="14.00">email :text</text>
<text text-anchor="start" x="295.071" y="-1294.8" font-family="Times,serif" font-size="14.00">name :text</text>
<text text-anchor="start" x="295.071" y="-1279.8" font-family="Times,serif" font-size="14.00">notify_via_email :boolean</text>
<text text-anchor="start" x="295.071" y="-1264.8" font-family="Times,serif" font-size="14.00">notify_on_new_articles :boolean</text>
<text text-anchor="start" x="295.071" y="-1249.8" font-family="Times,serif" font-size="14.00">notify_on_comments :boolean</text>
<text text-anchor="start" x="295.071" y="-1234.8" font-family="Times,serif" font-size="14.00">profile_id :integer</text>
<text text-anchor="start" x="295.071" y="-1219.8" font-family="Times,serif" font-size="14.00">remember_token :varchar(255)</text>
<text text-anchor="start" x="295.071" y="-1204.8" font-family="Times,serif" font-size="14.00">remember_token_expires_at :datetime</text>
<text text-anchor="start" x="295.071" y="-1189.8" font-family="Times,serif" font-size="14.00">text_filter_id :varchar(255)</text>
<text text-anchor="start" x="295.071" y="-1174.8" font-family="Times,serif" font-size="14.00">state :varchar(255)</text>
<text text-anchor="start" x="295.071" y="-1159.8" font-family="Times,serif" font-size="14.00">last_connection :datetime</text>
<text text-anchor="start" x="295.071" y="-1144.8" font-family="Times,serif" font-size="14.00">settings :text</text>
</g>
<!-- Notification -->
<g id="node6" class="node"><title>Notification</title>
<path fill="none" stroke="black" d="M239.071,-124C239.071,-124 346.071,-124 346.071,-124 352.071,-124 358.071,-130 358.071,-136 358.071,-136 358.071,-218 358.071,-218 358.071,-224 352.071,-230 346.071,-230 346.071,-230 239.071,-230 239.071,-230 233.071,-230 227.071,-224 227.071,-218 227.071,-218 227.071,-136 227.071,-136 227.071,-130 233.071,-124 239.071,-124"/>
<text text-anchor="middle" x="292.571" y="-214.8" font-family="Times,serif" font-size="14.00">Notification</text>
<polyline fill="none" stroke="black" points="227.071,-207 358.071,-207 "/>
<text text-anchor="start" x="235.071" y="-191.8" font-family="Times,serif" font-size="14.00">id :INTEGER</text>
<text text-anchor="start" x="235.071" y="-176.8" font-family="Times,serif" font-size="14.00">content_id :integer</text>
<text text-anchor="start" x="235.071" y="-161.8" font-family="Times,serif" font-size="14.00">user_id :integer</text>
<text text-anchor="start" x="235.071" y="-146.8" font-family="Times,serif" font-size="14.00">created_at :datetime</text>
<text text-anchor="start" x="235.071" y="-131.8" font-family="Times,serif" font-size="14.00">updated_at :datetime</text>
</g>
<!-- User&#45;&gt;Notification -->
<g id="edge1" class="edge"><title>User&#45;&gt;Notification</title>
<path fill="none" stroke="#1e83ed" d="M279.259,-1226.75C211.312,-1199.01 132.274,-1153.69 91.5705,-1084 46.2666,-1006.44 16.2227,-351.055 65.5705,-276 98.9687,-225.204 164.886,-200.617 217.122,-188.788"/>
<ellipse fill="none" stroke="#1e83ed" cx="283.35" cy="-1228.39" rx="4.00001" ry="4.00001"/>
<polygon fill="#1e83ed" stroke="#1e83ed" points="217.262,-188.758 227.984,-191.055 222.15,-187.707 227.039,-186.656 227.039,-186.656 227.039,-186.656 222.15,-187.707 226.093,-182.256 217.262,-188.758 217.262,-188.758"/>
</g>
<!-- Article -->
<g id="node19" class="node"><title>Article</title>
<path fill="none" stroke="black" d="M727.071,-707C727.071,-707 864.071,-707 864.071,-707 870.071,-707 876.071,-713 876.071,-719 876.071,-719 876.071,-1071 876.071,-1071 876.071,-1077 870.071,-1083 864.071,-1083 864.071,-1083 727.071,-1083 727.071,-1083 721.071,-1083 715.071,-1077 715.071,-1071 715.071,-1071 715.071,-719 715.071,-719 715.071,-713 721.071,-707 727.071,-707"/>
<text text-anchor="middle" x="795.571" y="-1067.8" font-family="Times,serif" font-size="14.00">Article</text>
<polyline fill="none" stroke="black" points="715.071,-1060 876.071,-1060 "/>
<text text-anchor="start" x="723.071" y="-1044.8" font-family="Times,serif" font-size="14.00">id :INTEGER</text>
<text text-anchor="start" x="723.071" y="-1029.8" font-family="Times,serif" font-size="14.00">type :varchar(255)</text>
<text text-anchor="start" x="723.071" y="-1014.8" font-family="Times,serif" font-size="14.00">title :varchar(255)</text>
<text text-anchor="start" x="723.071" y="-999.8" font-family="Times,serif" font-size="14.00">author :varchar(255)</text>
<text text-anchor="start" x="723.071" y="-984.8" font-family="Times,serif" font-size="14.00">body :text</text>
<text text-anchor="start" x="723.071" y="-969.8" font-family="Times,serif" font-size="14.00">extended :text</text>
<text text-anchor="start" x="723.071" y="-954.8" font-family="Times,serif" font-size="14.00">excerpt :text</text>
<text text-anchor="start" x="723.071" y="-939.8" font-family="Times,serif" font-size="14.00">created_at :datetime</text>
<text text-anchor="start" x="723.071" y="-924.8" font-family="Times,serif" font-size="14.00">updated_at :datetime</text>
<text text-anchor="start" x="723.071" y="-909.8" font-family="Times,serif" font-size="14.00">user_id :integer</text>
<text text-anchor="start" x="723.071" y="-894.8" font-family="Times,serif" font-size="14.00">permalink :varchar(255)</text>
<text text-anchor="start" x="723.071" y="-879.8" font-family="Times,serif" font-size="14.00">guid :varchar(255)</text>
<text text-anchor="start" x="723.071" y="-864.8" font-family="Times,serif" font-size="14.00">text_filter_id :integer</text>
<text text-anchor="start" x="723.071" y="-849.8" font-family="Times,serif" font-size="14.00">whiteboard :text</text>
<text text-anchor="start" x="723.071" y="-834.8" font-family="Times,serif" font-size="14.00">name :varchar(255)</text>
<text text-anchor="start" x="723.071" y="-819.8" font-family="Times,serif" font-size="14.00">published :boolean</text>
<text text-anchor="start" x="723.071" y="-804.8" font-family="Times,serif" font-size="14.00">allow_pings :boolean</text>
<text text-anchor="start" x="723.071" y="-789.8" font-family="Times,serif" font-size="14.00">allow_comments :boolean</text>
<text text-anchor="start" x="723.071" y="-774.8" font-family="Times,serif" font-size="14.00">published_at :datetime</text>
<text text-anchor="start" x="723.071" y="-759.8" font-family="Times,serif" font-size="14.00">state :varchar(255)</text>
<text text-anchor="start" x="723.071" y="-744.8" font-family="Times,serif" font-size="14.00">parent_id :integer</text>
<text text-anchor="start" x="723.071" y="-729.8" font-family="Times,serif" font-size="14.00">settings :text</text>
<text text-anchor="start" x="723.071" y="-714.8" font-family="Times,serif" font-size="14.00">post_type :varchar(255)</text>
</g>
<!-- User&#45;&gt;Article -->
<g id="edge3" class="edge"><title>User&#45;&gt;Article</title>
<path fill="none" stroke="#610824" d="M520.347,-1152.41C580.636,-1096.24 652.421,-1029.36 707.56,-977.994"/>
<ellipse fill="none" stroke="#610824" cx="517.218" cy="-1155.33" rx="4.00002" ry="4.00002"/>
<polygon fill="#610824" stroke="#610824" points="707.567,-977.988 717.952,-974.464 711.226,-974.579 714.884,-971.171 714.884,-971.171 714.884,-971.171 711.226,-974.579 711.817,-967.879 707.567,-977.988 707.567,-977.988"/>
</g>
<!-- Content -->
<g id="node25" class="node"><title>Content</title>
<path fill="none" stroke="black" d="M120.071,-277C120.071,-277 257.071,-277 257.071,-277 263.071,-277 269.071,-283 269.071,-289 269.071,-289 269.071,-641 269.071,-641 269.071,-647 263.071,-653 257.071,-653 257.071,-653 120.071,-653 120.071,-653 114.071,-653 108.071,-647 108.071,-641 108.071,-641 108.071,-289 108.071,-289 108.071,-283 114.071,-277 120.071,-277"/>
<text text-anchor="middle" x="188.571" y="-637.8" font-family="Times,serif" font-size="14.00">Content</text>
<polyline fill="none" stroke="black" points="108.071,-630 269.071,-630 "/>
<text text-anchor="start" x="116.071" y="-614.8" font-family="Times,serif" font-size="14.00">id :INTEGER</text>
<text text-anchor="start" x="116.071" y="-599.8" font-family="Times,serif" font-size="14.00">type :varchar(255)</text>
<text text-anchor="start" x="116.071" y="-584.8" font-family="Times,serif" font-size="14.00">title :varchar(255)</text>
<text text-anchor="start" x="116.071" y="-569.8" font-family="Times,serif" font-size="14.00">author :varchar(255)</text>
<text text-anchor="start" x="116.071" y="-554.8" font-family="Times,serif" font-size="14.00">body :text</text>
<text text-anchor="start" x="116.071" y="-539.8" font-family="Times,serif" font-size="14.00">extended :text</text>
<text text-anchor="start" x="116.071" y="-524.8" font-family="Times,serif" font-size="14.00">excerpt :text</text>
<text text-anchor="start" x="116.071" y="-509.8" font-family="Times,serif" font-size="14.00">created_at :datetime</text>
<text text-anchor="start" x="116.071" y="-494.8" font-family="Times,serif" font-size="14.00">updated_at :datetime</text>
<text text-anchor="start" x="116.071" y="-479.8" font-family="Times,serif" font-size="14.00">user_id :integer</text>
<text text-anchor="start" x="116.071" y="-464.8" font-family="Times,serif" font-size="14.00">permalink :varchar(255)</text>
<text text-anchor="start" x="116.071" y="-449.8" font-family="Times,serif" font-size="14.00">guid :varchar(255)</text>
<text text-anchor="start" x="116.071" y="-434.8" font-family="Times,serif" font-size="14.00">text_filter_id :integer</text>
<text text-anchor="start" x="116.071" y="-419.8" font-family="Times,serif" font-size="14.00">whiteboard :text</text>
<text text-anchor="start" x="116.071" y="-404.8" font-family="Times,serif" font-size="14.00">name :varchar(255)</text>
<text text-anchor="start" x="116.071" y="-389.8" font-family="Times,serif" font-size="14.00">published :boolean</text>
<text text-anchor="start" x="116.071" y="-374.8" font-family="Times,serif" font-size="14.00">allow_pings :boolean</text>
<text text-anchor="start" x="116.071" y="-359.8" font-family="Times,serif" font-size="14.00">allow_comments :boolean</text>
<text text-anchor="start" x="116.071" y="-344.8" font-family="Times,serif" font-size="14.00">published_at :datetime</text>
<text text-anchor="start" x="116.071" y="-329.8" font-family="Times,serif" font-size="14.00">state :varchar(255)</text>
<text text-anchor="start" x="116.071" y="-314.8" font-family="Times,serif" font-size="14.00">parent_id :integer</text>
<text text-anchor="start" x="116.071" y="-299.8" font-family="Times,serif" font-size="14.00">settings :text</text>
<text text-anchor="start" x="116.071" y="-284.8" font-family="Times,serif" font-size="14.00">post_type :varchar(255)</text>
</g>
<!-- User&#45;&gt;Content -->
<g id="edge2" class="edge"><title>User&#45;&gt;Content</title>
<path fill="none" stroke="#ba8c8f" d="M285.799,-1127.93C277.256,-1113.67 269.626,-1098.92 263.571,-1084 233.489,-1009.91 213.125,-814.988 201.295,-663.678"/>
<polygon fill="#ba8c8f" stroke="#ba8c8f" points="285.984,-1128.23 287.4,-1139.11 288.607,-1132.49 291.231,-1136.75 291.231,-1136.75 291.231,-1136.75 288.607,-1132.49 295.062,-1134.38 285.984,-1128.23 285.984,-1128.23"/>
<polygon fill="#ba8c8f" stroke="#ba8c8f" points="201.265,-663.289 204.979,-652.971 200.879,-658.304 200.493,-653.319 200.493,-653.319 200.493,-653.319 200.879,-658.304 196.006,-653.666 201.265,-663.289 201.265,-663.289"/>
<text text-anchor="middle" x="306.071" y="-891.3" font-family="Times,serif" font-size="14.00">notify_contents</text>
</g>
<!-- Tag -->
<g id="node3" class="node"><title>Tag</title>
<path fill="none" stroke="black" d="M722.571,-1212C722.571,-1212 868.571,-1212 868.571,-1212 874.571,-1212 880.571,-1218 880.571,-1224 880.571,-1224 880.571,-1306 880.571,-1306 880.571,-1312 874.571,-1318 868.571,-1318 868.571,-1318 722.571,-1318 722.571,-1318 716.571,-1318 710.571,-1312 710.571,-1306 710.571,-1306 710.571,-1224 710.571,-1224 710.571,-1218 716.571,-1212 722.571,-1212"/>
<text text-anchor="middle" x="795.571" y="-1302.8" font-family="Times,serif" font-size="14.00">Tag</text>
<polyline fill="none" stroke="black" points="710.571,-1295 880.571,-1295 "/>
<text text-anchor="start" x="718.571" y="-1279.8" font-family="Times,serif" font-size="14.00">id :INTEGER</text>
<text text-anchor="start" x="718.571" y="-1264.8" font-family="Times,serif" font-size="14.00">name :varchar(255)</text>
<text text-anchor="start" x="718.571" y="-1249.8" font-family="Times,serif" font-size="14.00">created_at :datetime</text>
<text text-anchor="start" x="718.571" y="-1234.8" font-family="Times,serif" font-size="14.00">updated_at :datetime</text>
<text text-anchor="start" x="718.571" y="-1219.8" font-family="Times,serif" font-size="14.00">display_name :varchar(255)</text>
</g>
<!-- Tag&#45;&gt;Article -->
<g id="edge4" class="edge"><title>Tag&#45;&gt;Article</title>
<path fill="none" stroke="#181a15" d="M795.571,-1201.28C795.571,-1170.96 795.571,-1132.72 795.571,-1093.65"/>
<polygon fill="#181a15" stroke="#181a15" points="795.571,-1201.67 791.071,-1211.67 795.571,-1206.67 795.571,-1211.67 795.571,-1211.67 795.571,-1211.67 795.571,-1206.67 800.071,-1211.67 795.571,-1201.67 795.571,-1201.67"/>
<polygon fill="#181a15" stroke="#181a15" points="795.571,-1093.16 800.071,-1083.16 795.571,-1088.16 795.571,-1083.16 795.571,-1083.16 795.571,-1083.16 795.571,-1088.16 791.071,-1083.16 795.571,-1093.16 795.571,-1093.16"/>
</g>
<!-- EmailNotifier -->
<g id="node4" class="node"><title>EmailNotifier</title>
<polygon fill="none" stroke="black" points="505.571,-1612 505.571,-1658 597.571,-1658 597.571,-1612 505.571,-1612"/>
<text text-anchor="middle" x="551.571" y="-1642.8" font-family="Times,serif" font-size="14.00">EmailNotifier</text>
<polyline fill="none" stroke="black" points="505.571,-1635 597.571,-1635 "/>
<text text-anchor="middle" x="551.571" y="-1619.8" font-family="Times,serif" font-size="14.00"> </text>
</g>
<!-- Article::States -->
<g id="node5" class="node"><title>Article::States</title>
<polygon fill="none" stroke="black" stroke-dasharray="1,5" points="892.571,-1653 798.571,-1653 798.571,-1617 892.571,-1617 892.571,-1653"/>
<text text-anchor="middle" x="845.571" y="-1631.3" font-family="Times,serif" font-size="14.00">Article::States</text>
</g>
<!-- Resource -->
<g id="node7" class="node"><title>Resource</title>
<path fill="none" stroke="black" d="M555.071,-337C555.071,-337 716.071,-337 716.071,-337 722.071,-337 728.071,-343 728.071,-349 728.071,-349 728.071,-581 728.071,-581 728.071,-587 722.071,-593 716.071,-593 716.071,-593 555.071,-593 555.071,-593 549.071,-593 543.071,-587 543.071,-581 543.071,-581 543.071,-349 543.071,-349 543.071,-343 549.071,-337 555.071,-337"/>
<text text-anchor="middle" x="635.571" y="-577.8" font-family="Times,serif" font-size="14.00">Resource</text>
<polyline fill="none" stroke="black" points="543.071,-570 728.071,-570 "/>
<text text-anchor="start" x="551.071" y="-554.8" font-family="Times,serif" font-size="14.00">id :INTEGER</text>
<text text-anchor="start" x="551.071" y="-539.8" font-family="Times,serif" font-size="14.00">size :integer</text>
<text text-anchor="start" x="551.071" y="-524.8" font-family="Times,serif" font-size="14.00">filename :varchar(255)</text>
<text text-anchor="start" x="551.071" y="-509.8" font-family="Times,serif" font-size="14.00">mime :varchar(255)</text>
<text text-anchor="start" x="551.071" y="-494.8" font-family="Times,serif" font-size="14.00">created_at :datetime</text>
<text text-anchor="start" x="551.071" y="-479.8" font-family="Times,serif" font-size="14.00">updated_at :datetime</text>
<text text-anchor="start" x="551.071" y="-464.8" font-family="Times,serif" font-size="14.00">article_id :integer</text>
<text text-anchor="start" x="551.071" y="-449.8" font-family="Times,serif" font-size="14.00">itunes_metadata :boolean</text>
<text text-anchor="start" x="551.071" y="-434.8" font-family="Times,serif" font-size="14.00">itunes_author :varchar(255)</text>
<text text-anchor="start" x="551.071" y="-419.8" font-family="Times,serif" font-size="14.00">itunes_subtitle :varchar(255)</text>
<text text-anchor="start" x="551.071" y="-404.8" font-family="Times,serif" font-size="14.00">itunes_duration :integer</text>
<text text-anchor="start" x="551.071" y="-389.8" font-family="Times,serif" font-size="14.00">itunes_summary :text</text>
<text text-anchor="start" x="551.071" y="-374.8" font-family="Times,serif" font-size="14.00">itunes_keywords :varchar(255)</text>
<text text-anchor="start" x="551.071" y="-359.8" font-family="Times,serif" font-size="14.00">itunes_category :varchar(255)</text>
<text text-anchor="start" x="551.071" y="-344.8" font-family="Times,serif" font-size="14.00">itunes_explicit :boolean</text>
</g>
<!-- Sidebar -->
<g id="node8" class="node"><title>Sidebar</title>
<path fill="none" stroke="black" d="M1014.57,-1582C1014.57,-1582 1136.57,-1582 1136.57,-1582 1142.57,-1582 1148.57,-1588 1148.57,-1594 1148.57,-1594 1148.57,-1676 1148.57,-1676 1148.57,-1682 1142.57,-1688 1136.57,-1688 1136.57,-1688 1014.57,-1688 1014.57,-1688 1008.57,-1688 1002.57,-1682 1002.57,-1676 1002.57,-1676 1002.57,-1594 1002.57,-1594 1002.57,-1588 1008.57,-1582 1014.57,-1582"/>
<text text-anchor="middle" x="1075.57" y="-1672.8" font-family="Times,serif" font-size="14.00">Sidebar</text>
<polyline fill="none" stroke="black" points="1002.57,-1665 1148.57,-1665 "/>
<text text-anchor="start" x="1010.57" y="-1649.8" font-family="Times,serif" font-size="14.00">id :INTEGER</text>
<text text-anchor="start" x="1010.57" y="-1634.8" font-family="Times,serif" font-size="14.00">active_position :integer</text>
<text text-anchor="start" x="1010.57" y="-1619.8" font-family="Times,serif" font-size="14.00">config :text</text>
<text text-anchor="start" x="1010.57" y="-1604.8" font-family="Times,serif" font-size="14.00">staged_position :integer</text>
<text text-anchor="start" x="1010.57" y="-1589.8" font-family="Times,serif" font-size="14.00">type :varchar(255)</text>
</g>
<!-- WebNotifier -->
<g id="node9" class="node"><title>WebNotifier</title>
<polygon fill="none" stroke="black" points="1212.57,-1612 1212.57,-1658 1298.57,-1658 1298.57,-1612 1212.57,-1612"/>
<text text-anchor="middle" x="1255.57" y="-1642.8" font-family="Times,serif" font-size="14.00">WebNotifier</text>
<polyline fill="none" stroke="black" points="1212.57,-1635 1298.57,-1635 "/>
<text text-anchor="middle" x="1255.57" y="-1619.8" font-family="Times,serif" font-size="14.00"> </text>
</g>
<!-- TextFilter -->
<g id="node10" class="node"><title>TextFilter</title>
<path fill="none" stroke="black" d="M1351.57,-1574.5C1351.57,-1574.5 1481.57,-1574.5 1481.57,-1574.5 1487.57,-1574.5 1493.57,-1580.5 1493.57,-1586.5 1493.57,-1586.5 1493.57,-1683.5 1493.57,-1683.5 1493.57,-1689.5 1487.57,-1695.5 1481.57,-1695.5 1481.57,-1695.5 1351.57,-1695.5 1351.57,-1695.5 1345.57,-1695.5 1339.57,-1689.5 1339.57,-1683.5 1339.57,-1683.5 1339.57,-1586.5 1339.57,-1586.5 1339.57,-1580.5 1345.57,-1574.5 1351.57,-1574.5"/>
<text text-anchor="middle" x="1416.57" y="-1680.3" font-family="Times,serif" font-size="14.00">TextFilter</text>
<polyline fill="none" stroke="black" points="1339.57,-1672.5 1493.57,-1672.5 "/>
<text text-anchor="start" x="1347.57" y="-1657.3" font-family="Times,serif" font-size="14.00">id :INTEGER</text>
<text text-anchor="start" x="1347.57" y="-1642.3" font-family="Times,serif" font-size="14.00">name :varchar(255)</text>
<text text-anchor="start" x="1347.57" y="-1627.3" font-family="Times,serif" font-size="14.00">description :varchar(255)</text>
<text text-anchor="start" x="1347.57" y="-1612.3" font-family="Times,serif" font-size="14.00">markup :varchar(255)</text>
<text text-anchor="start" x="1347.57" y="-1597.3" font-family="Times,serif" font-size="14.00">filters :text</text>
<text text-anchor="start" x="1347.57" y="-1582.3" font-family="Times,serif" font-size="14.00">params :text</text>
</g>
<!-- NotificationMailer -->
<g id="node11" class="node"><title>NotificationMailer</title>
<polygon fill="none" stroke="black" points="1523.07,-1612 1523.07,-1658 1642.07,-1658 1642.07,-1612 1523.07,-1612"/>
<text text-anchor="middle" x="1582.57" y="-1642.8" font-family="Times,serif" font-size="14.00">NotificationMailer</text>
<polyline fill="none" stroke="black" points="1523.07,-1635 1642.07,-1635 "/>
<text text-anchor="middle" x="1582.57" y="-1619.8" font-family="Times,serif" font-size="14.00"> </text>
</g>
<!-- Profile -->
<g id="node12" class="node"><title>Profile</title>
<path fill="none" stroke="black" d="M1682.57,-1219.5C1682.57,-1219.5 1804.57,-1219.5 1804.57,-1219.5 1810.57,-1219.5 1816.57,-1225.5 1816.57,-1231.5 1816.57,-1231.5 1816.57,-1298.5 1816.57,-1298.5 1816.57,-1304.5 1810.57,-1310.5 1804.57,-1310.5 1804.57,-1310.5 1682.57,-1310.5 1682.57,-1310.5 1676.57,-1310.5 1670.57,-1304.5 1670.57,-1298.5 1670.57,-1298.5 1670.57,-1231.5 1670.57,-1231.5 1670.57,-1225.5 1676.57,-1219.5 1682.57,-1219.5"/>
<text text-anchor="middle" x="1743.57" y="-1295.3" font-family="Times,serif" font-size="14.00">Profile</text>
<polyline fill="none" stroke="black" points="1670.57,-1287.5 1816.57,-1287.5 "/>
<text text-anchor="start" x="1678.57" y="-1272.3" font-family="Times,serif" font-size="14.00">id :INTEGER</text>
<text text-anchor="start" x="1678.57" y="-1257.3" font-family="Times,serif" font-size="14.00">label :varchar(255)</text>
<text text-anchor="start" x="1678.57" y="-1242.3" font-family="Times,serif" font-size="14.00">nicename :varchar(255)</text>
<text text-anchor="start" x="1678.57" y="-1227.3" font-family="Times,serif" font-size="14.00">modules :text</text>
</g>
<!-- Right -->
<g id="node13" class="node"><title>Right</title>
<path fill="none" stroke="black" d="M1678.57,-1597C1678.57,-1597 1808.57,-1597 1808.57,-1597 1814.57,-1597 1820.57,-1603 1820.57,-1609 1820.57,-1609 1820.57,-1661 1820.57,-1661 1820.57,-1667 1814.57,-1673 1808.57,-1673 1808.57,-1673 1678.57,-1673 1678.57,-1673 1672.57,-1673 1666.57,-1667 1666.57,-1661 1666.57,-1661 1666.57,-1609 1666.57,-1609 1666.57,-1603 1672.57,-1597 1678.57,-1597"/>
<text text-anchor="middle" x="1743.57" y="-1657.8" font-family="Times,serif" font-size="14.00">Right</text>
<polyline fill="none" stroke="black" points="1666.57,-1650 1820.57,-1650 "/>
<text text-anchor="start" x="1674.57" y="-1634.8" font-family="Times,serif" font-size="14.00">id :INTEGER</text>
<text text-anchor="start" x="1674.57" y="-1619.8" font-family="Times,serif" font-size="14.00">name :varchar(255)</text>
<text text-anchor="start" x="1674.57" y="-1604.8" font-family="Times,serif" font-size="14.00">description :varchar(255)</text>
</g>
<!-- Right&#45;&gt;Profile -->
<g id="edge5" class="edge"><title>Right&#45;&gt;Profile</title>
<path fill="none" stroke="#e637cc" d="M1743.57,-1586.6C1743.57,-1518.39 1743.57,-1392.84 1743.57,-1320.75"/>
<polygon fill="#e637cc" stroke="#e637cc" points="1743.57,-1586.69 1739.07,-1596.69 1743.57,-1591.69 1743.57,-1596.69 1743.57,-1596.69 1743.57,-1596.69 1743.57,-1591.69 1748.07,-1596.69 1743.57,-1586.69 1743.57,-1586.69"/>
<polygon fill="#e637cc" stroke="#e637cc" points="1743.57,-1320.52 1748.07,-1310.52 1743.57,-1315.52 1743.57,-1310.52 1743.57,-1310.52 1743.57,-1310.52 1743.57,-1315.52 1739.07,-1310.52 1743.57,-1320.52 1743.57,-1320.52"/>
</g>
<!-- Comment -->
<g id="node14" class="node"><title>Comment</title>
<path fill="none" stroke="black" d="M1121.07,-292C1121.07,-292 1258.07,-292 1258.07,-292 1264.07,-292 1270.07,-298 1270.07,-304 1270.07,-304 1270.07,-626 1270.07,-626 1270.07,-632 1264.07,-638 1258.07,-638 1258.07,-638 1121.07,-638 1121.07,-638 1115.07,-638 1109.07,-632 1109.07,-626 1109.07,-626 1109.07,-304 1109.07,-304 1109.07,-298 1115.07,-292 1121.07,-292"/>
<text text-anchor="middle" x="1189.57" y="-622.8" font-family="Times,serif" font-size="14.00">Comment</text>
<polyline fill="none" stroke="black" points="1109.07,-615 1270.07,-615 "/>
<text text-anchor="start" x="1117.07" y="-599.8" font-family="Times,serif" font-size="14.00">id :INTEGER</text>
<text text-anchor="start" x="1117.07" y="-584.8" font-family="Times,serif" font-size="14.00">type :varchar(255)</text>
<text text-anchor="start" x="1117.07" y="-569.8" font-family="Times,serif" font-size="14.00">title :varchar(255)</text>
<text text-anchor="start" x="1117.07" y="-554.8" font-family="Times,serif" font-size="14.00">author :varchar(255)</text>
<text text-anchor="start" x="1117.07" y="-539.8" font-family="Times,serif" font-size="14.00">body :text</text>
<text text-anchor="start" x="1117.07" y="-524.8" font-family="Times,serif" font-size="14.00">excerpt :text</text>
<text text-anchor="start" x="1117.07" y="-509.8" font-family="Times,serif" font-size="14.00">created_at :datetime</text>
<text text-anchor="start" x="1117.07" y="-494.8" font-family="Times,serif" font-size="14.00">updated_at :datetime</text>
<text text-anchor="start" x="1117.07" y="-479.8" font-family="Times,serif" font-size="14.00">user_id :integer</text>
<text text-anchor="start" x="1117.07" y="-464.8" font-family="Times,serif" font-size="14.00">guid :varchar(255)</text>
<text text-anchor="start" x="1117.07" y="-449.8" font-family="Times,serif" font-size="14.00">text_filter_id :integer</text>
<text text-anchor="start" x="1117.07" y="-434.8" font-family="Times,serif" font-size="14.00">whiteboard :text</text>
<text text-anchor="start" x="1117.07" y="-419.8" font-family="Times,serif" font-size="14.00">article_id :integer</text>
<text text-anchor="start" x="1117.07" y="-404.8" font-family="Times,serif" font-size="14.00">email :varchar(255)</text>
<text text-anchor="start" x="1117.07" y="-389.8" font-family="Times,serif" font-size="14.00">url :varchar(255)</text>
<text text-anchor="start" x="1117.07" y="-374.8" font-family="Times,serif" font-size="14.00">ip :varchar(40)</text>
<text text-anchor="start" x="1117.07" y="-359.8" font-family="Times,serif" font-size="14.00">blog_name :varchar(255)</text>
<text text-anchor="start" x="1117.07" y="-344.8" font-family="Times,serif" font-size="14.00">published :boolean</text>
<text text-anchor="start" x="1117.07" y="-329.8" font-family="Times,serif" font-size="14.00">published_at :datetime</text>
<text text-anchor="start" x="1117.07" y="-314.8" font-family="Times,serif" font-size="14.00">state :varchar(255)</text>
<text text-anchor="start" x="1117.07" y="-299.8" font-family="Times,serif" font-size="14.00">status_confirmed :boolean</text>
</g>
<!-- Comment&#45;&gt;User -->
<g id="edge7" class="edge"><title>Comment&#45;&gt;User</title>
<path fill="none" stroke="#adb3cd" d="M1204.15,-648.162C1202.07,-661.824 1198.97,-675.243 1194.57,-688 1121.7,-899.302 1070.08,-959.323 884.571,-1084 814.394,-1131.16 781.298,-1107.84 701.571,-1136 642.096,-1157 577.567,-1183.88 523.565,-1207.57"/>
<polygon fill="#adb3cd" stroke="#adb3cd" points="1204.16,-648.089 1209.95,-638.775 1204.82,-643.134 1205.49,-638.178 1205.49,-638.178 1205.49,-638.178 1204.82,-643.134 1201.03,-637.581 1204.16,-648.089 1204.16,-648.089"/>
<polygon fill="#adb3cd" stroke="#adb3cd" points="523.454,-1207.62 512.488,-1207.53 518.878,-1209.64 514.302,-1211.65 514.302,-1211.65 514.302,-1211.65 518.878,-1209.64 516.115,-1215.77 523.454,-1207.62 523.454,-1207.62"/>
<text text-anchor="middle" x="1221.07" y="-891.3" font-family="Times,serif" font-size="14.00">notify_users</text>
</g>
<!-- Comment&#45;&gt;Notification -->
<g id="edge6" class="edge"><title>Comment&#45;&gt;Notification</title>
<path fill="none" stroke="#09697a" d="M1112.82,-286.223C1108.63,-282.538 1104.21,-279.115 1099.57,-276 1038.29,-234.899 508.481,-254.536 436.571,-238 413.578,-232.713 389.561,-224.077 367.877,-214.983"/>
<ellipse fill="none" stroke="#09697a" cx="1115.87" cy="-289.073" rx="4.00002" ry="4.00002"/>
<polygon fill="#09697a" stroke="#09697a" points="367.605,-214.867 360.189,-206.79 363.01,-212.896 358.415,-210.925 358.415,-210.925 358.415,-210.925 363.01,-212.896 356.641,-215.061 367.605,-214.867 367.605,-214.867"/>
</g>
<!-- Redirection -->
<g id="node16" class="node"><title>Redirection</title>
<path fill="none" stroke="black" d="M759.571,-1C759.571,-1 855.571,-1 855.571,-1 861.571,-1 867.571,-7 867.571,-13 867.571,-13 867.571,-65 867.571,-65 867.571,-71 861.571,-77 855.571,-77 855.571,-77 759.571,-77 759.571,-77 753.571,-77 747.571,-71 747.571,-65 747.571,-65 747.571,-13 747.571,-13 747.571,-7 753.571,-1 759.571,-1"/>
<text text-anchor="middle" x="807.571" y="-61.8" font-family="Times,serif" font-size="14.00">Redirection</text>
<polyline fill="none" stroke="black" points="747.571,-54 867.571,-54 "/>
<text text-anchor="start" x="755.571" y="-38.8" font-family="Times,serif" font-size="14.00">id :INTEGER</text>
<text text-anchor="start" x="755.571" y="-23.8" font-family="Times,serif" font-size="14.00">content_id :integer</text>
<text text-anchor="start" x="755.571" y="-8.8" font-family="Times,serif" font-size="14.00">redirect_id :integer</text>
</g>
<!-- Comment&#45;&gt;Redirection -->
<g id="edge8" class="edge"><title>Comment&#45;&gt;Redirection</title>
<path fill="none" stroke="#f0e779" d="M1147.07,-283.987C1124.98,-223.663 1092.06,-160.503 1043.57,-116 998.008,-74.1838 929.255,-55.3662 877.691,-46.9034"/>
<ellipse fill="none" stroke="#f0e779" cx="1148.5" cy="-287.946" rx="4.00001" ry="4.00001"/>
<polygon fill="#f0e779" stroke="#f0e779" points="877.502,-46.8743 868.308,-40.8981 872.561,-46.1097 867.62,-45.3452 867.62,-45.3452 867.62,-45.3452 872.561,-46.1097 866.932,-49.7923 877.502,-46.8743 877.502,-46.8743"/>
</g>
<!-- Trigger -->
<g id="node30" class="node"><title>Trigger</title>
<path fill="none" stroke="black" d="M848.071,-124C848.071,-124 1023.07,-124 1023.07,-124 1029.07,-124 1035.07,-130 1035.07,-136 1035.07,-136 1035.07,-218 1035.07,-218 1035.07,-224 1029.07,-230 1023.07,-230 1023.07,-230 848.071,-230 848.071,-230 842.071,-230 836.071,-224 836.071,-218 836.071,-218 836.071,-136 836.071,-136 836.071,-130 842.071,-124 848.071,-124"/>
<text text-anchor="middle" x="935.571" y="-214.8" font-family="Times,serif" font-size="14.00">Trigger</text>
<polyline fill="none" stroke="black" points="836.071,-207 1035.07,-207 "/>
<text text-anchor="start" x="844.071" y="-191.8" font-family="Times,serif" font-size="14.00">id :INTEGER</text>
<text text-anchor="start" x="844.071" y="-176.8" font-family="Times,serif" font-size="14.00">pending_item_id :integer</text>
<text text-anchor="start" x="844.071" y="-161.8" font-family="Times,serif" font-size="14.00">pending_item_type :varchar(255)</text>
<text text-anchor="start" x="844.071" y="-146.8" font-family="Times,serif" font-size="14.00">due_at :datetime</text>
<text text-anchor="start" x="844.071" y="-131.8" font-family="Times,serif" font-size="14.00">trigger_method :varchar(255)</text>
</g>
<!-- Comment&#45;&gt;Trigger -->
<g id="edge10" class="edge"><title>Comment&#45;&gt;Trigger</title>
<path fill="none" stroke="#3af03a" d="M1107.41,-285.08C1104.86,-281.968 1102.25,-278.937 1099.57,-276 1083.73,-258.629 1064.09,-243.365 1043.97,-230.373"/>
<ellipse fill="none" stroke="#3af03a" cx="1110.08" cy="-288.441" rx="4.00002" ry="4.00002"/>
<polygon fill="#3af03a" stroke="#3af03a" points="1043.8,-230.263 1037.72,-221.134 1039.56,-227.604 1035.33,-224.945 1035.33,-224.945 1035.33,-224.945 1039.56,-227.604 1032.93,-228.755 1043.8,-230.263 1043.8,-230.263"/>
</g>
<!-- Redirect -->
<g id="node32" class="node"><title>Redirect</title>
<path fill="none" stroke="black" d="M458.071,-116.5C458.071,-116.5 585.071,-116.5 585.071,-116.5 591.071,-116.5 597.071,-122.5 597.071,-128.5 597.071,-128.5 597.071,-225.5 597.071,-225.5 597.071,-231.5 591.071,-237.5 585.071,-237.5 585.071,-237.5 458.071,-237.5 458.071,-237.5 452.071,-237.5 446.071,-231.5 446.071,-225.5 446.071,-225.5 446.071,-128.5 446.071,-128.5 446.071,-122.5 452.071,-116.5 458.071,-116.5"/>
<text text-anchor="middle" x="521.571" y="-222.3" font-family="Times,serif" font-size="14.00">Redirect</text>
<polyline fill="none" stroke="black" points="446.071,-214.5 597.071,-214.5 "/>
<text text-anchor="start" x="454.071" y="-199.3" font-family="Times,serif" font-size="14.00">id :INTEGER</text>
<text text-anchor="start" x="454.071" y="-184.3" font-family="Times,serif" font-size="14.00">from_path :varchar(255)</text>
<text text-anchor="start" x="454.071" y="-169.3" font-family="Times,serif" font-size="14.00">to_path :varchar(255)</text>
<text text-anchor="start" x="454.071" y="-154.3" font-family="Times,serif" font-size="14.00">origin :varchar(255)</text>
<text text-anchor="start" x="454.071" y="-139.3" font-family="Times,serif" font-size="14.00">created_at :datetime</text>
<text text-anchor="start" x="454.071" y="-124.3" font-family="Times,serif" font-size="14.00">updated_at :datetime</text>
</g>
<!-- Comment&#45;&gt;Redirect -->
<g id="edge9" class="edge"><title>Comment&#45;&gt;Redirect</title>
<path fill="none" stroke="#b6f41b" d="M1110.28,-284.706C1106.85,-281.627 1103.29,-278.716 1099.57,-276 1050.12,-239.849 886.977,-248.138 826.571,-238 752.208,-225.52 668.163,-208.79 607.156,-196.167"/>
<polygon fill="#b6f41b" stroke="#b6f41b" points="1110.35,-284.772 1114.44,-294.947 1113.95,-288.238 1117.56,-291.704 1117.56,-291.704 1117.56,-291.704 1113.95,-288.238 1120.68,-288.46 1110.35,-284.772 1110.35,-284.772"/>
<polygon fill="#b6f41b" stroke="#b6f41b" points="606.979,-196.13 598.102,-189.692 602.083,-195.114 597.187,-194.098 597.187,-194.098 597.187,-194.098 602.083,-195.114 596.273,-198.504 606.979,-196.13 606.979,-196.13"/>
</g>
<!-- Page -->
<g id="node15" class="node"><title>Page</title>
<path fill="none" stroke="black" d="M332.071,-1447C332.071,-1447 469.071,-1447 469.071,-1447 475.071,-1447 481.071,-1453 481.071,-1459 481.071,-1459 481.071,-1811 481.071,-1811 481.071,-1817 475.071,-1823 469.071,-1823 469.071,-1823 332.071,-1823 332.071,-1823 326.071,-1823 320.071,-1817 320.071,-1811 320.071,-1811 320.071,-1459 320.071,-1459 320.071,-1453 326.071,-1447 332.071,-1447"/>
<text text-anchor="middle" x="400.571" y="-1807.8" font-family="Times,serif" font-size="14.00">Page</text>
<polyline fill="none" stroke="black" points="320.071,-1800 481.071,-1800 "/>
<text text-anchor="start" x="328.071" y="-1784.8" font-family="Times,serif" font-size="14.00">id :INTEGER</text>
<text text-anchor="start" x="328.071" y="-1769.8" font-family="Times,serif" font-size="14.00">type :varchar(255)</text>
<text text-anchor="start" x="328.071" y="-1754.8" font-family="Times,serif" font-size="14.00">title :varchar(255)</text>
<text text-anchor="start" x="328.071" y="-1739.8" font-family="Times,serif" font-size="14.00">author :varchar(255)</text>
<text text-anchor="start" x="328.071" y="-1724.8" font-family="Times,serif" font-size="14.00">body :text</text>
<text text-anchor="start" x="328.071" y="-1709.8" font-family="Times,serif" font-size="14.00">extended :text</text>
<text text-anchor="start" x="328.071" y="-1694.8" font-family="Times,serif" font-size="14.00">excerpt :text</text>
<text text-anchor="start" x="328.071" y="-1679.8" font-family="Times,serif" font-size="14.00">created_at :datetime</text>
<text text-anchor="start" x="328.071" y="-1664.8" font-family="Times,serif" font-size="14.00">updated_at :datetime</text>
<text text-anchor="start" x="328.071" y="-1649.8" font-family="Times,serif" font-size="14.00">user_id :integer</text>
<text text-anchor="start" x="328.071" y="-1634.8" font-family="Times,serif" font-size="14.00">permalink :varchar(255)</text>
<text text-anchor="start" x="328.071" y="-1619.8" font-family="Times,serif" font-size="14.00">guid :varchar(255)</text>
<text text-anchor="start" x="328.071" y="-1604.8" font-family="Times,serif" font-size="14.00">text_filter_id :integer</text>
<text text-anchor="start" x="328.071" y="-1589.8" font-family="Times,serif" font-size="14.00">whiteboard :text</text>
<text text-anchor="start" x="328.071" y="-1574.8" font-family="Times,serif" font-size="14.00">name :varchar(255)</text>
<text text-anchor="start" x="328.071" y="-1559.8" font-family="Times,serif" font-size="14.00">published :boolean</text>
<text text-anchor="start" x="328.071" y="-1544.8" font-family="Times,serif" font-size="14.00">allow_pings :boolean</text>
<text text-anchor="start" x="328.071" y="-1529.8" font-family="Times,serif" font-size="14.00">allow_comments :boolean</text>
<text text-anchor="start" x="328.071" y="-1514.8" font-family="Times,serif" font-size="14.00">published_at :datetime</text>
<text text-anchor="start" x="328.071" y="-1499.8" font-family="Times,serif" font-size="14.00">state :varchar(255)</text>
<text text-anchor="start" x="328.071" y="-1484.8" font-family="Times,serif" font-size="14.00">parent_id :integer</text>
<text text-anchor="start" x="328.071" y="-1469.8" font-family="Times,serif" font-size="14.00">settings :text</text>
<text text-anchor="start" x="328.071" y="-1454.8" font-family="Times,serif" font-size="14.00">post_type :varchar(255)</text>
</g>
<!-- Page&#45;&gt;User -->
<g id="edge12" class="edge"><title>Page&#45;&gt;User</title>
<path fill="none" stroke="#0e2d55" d="M400.571,-1436.54C400.571,-1425.24 400.571,-1414.01 400.571,-1403.03"/>
<polygon fill="#0e2d55" stroke="#0e2d55" points="400.571,-1436.77 396.071,-1446.77 400.571,-1441.77 400.571,-1446.77 400.571,-1446.77 400.571,-1446.77 400.571,-1441.77 405.071,-1446.77 400.571,-1436.77 400.571,-1436.77"/>
<polygon fill="#0e2d55" stroke="#0e2d55" points="400.571,-1403.01 405.071,-1393.01 400.571,-1398.01 400.571,-1393.01 400.571,-1393.01 400.571,-1393.01 400.571,-1398.01 396.071,-1393.01 400.571,-1403.01 400.571,-1403.01"/>
<text text-anchor="middle" x="434.071" y="-1416.3" font-family="Times,serif" font-size="14.00">notify_users</text>
</g>
<!-- Page&#45;&gt;Notification -->
<g id="edge11" class="edge"><title>Page&#45;&gt;Notification</title>
<path fill="none" stroke="#bf78dc" d="M313.193,-1447.84C312.327,-1447.22 311.453,-1446.6 310.571,-1446 265.478,-1415.23 109.38,-1460.57 65.5705,-1428 3.70282,-1382 3.57053,-1343.09 3.57053,-1266 3.57053,-1266 3.57053,-1266 3.57053,-464 3.57053,-379.167 -14.4552,-343.772 36.5705,-276 78.9179,-219.755 157.815,-195.789 216.876,-185.578"/>
<ellipse fill="none" stroke="#bf78dc" cx="316.503" cy="-1450.39" rx="4.00002" ry="4.00002"/>
<polygon fill="#bf78dc" stroke="#bf78dc" points="217.046,-185.55 227.641,-188.382 221.981,-184.745 226.916,-183.94 226.916,-183.94 226.916,-183.94 221.981,-184.745 226.192,-179.499 217.046,-185.55 217.046,-185.55"/>
</g>
<!-- Page&#45;&gt;Redirection -->
<g id="edge13" class="edge"><title>Page&#45;&gt;Redirection</title>
<path fill="none" stroke="#924145" d="M487.837,-1452.37C490.661,-1450.13 493.571,-1448 496.571,-1446 526.688,-1425.87 1110.84,-1399.99 1146.57,-1394 1371.1,-1356.34 1642.57,-1493.67 1642.57,-1266 1642.57,-1266 1642.57,-1266 1642.57,-176 1642.57,-98.7645 1078.85,-56.6352 877.776,-44.0645"/>
<ellipse fill="none" stroke="#924145" cx="484.461" cy="-1455.22" rx="4.00002" ry="4.00002"/>
<polygon fill="#924145" stroke="#924145" points="877.603,-44.0539 867.9,-38.9442 872.612,-43.7447 867.622,-43.4356 867.622,-43.4356 867.622,-43.4356 872.612,-43.7447 867.343,-47.927 877.603,-44.0539 877.603,-44.0539"/>
</g>
<!-- Page&#45;&gt;Trigger -->
<g id="edge15" class="edge"><title>Page&#45;&gt;Trigger</title>
<path fill="none" stroke="#b91022" d="M487.271,-1453.18C490.273,-1450.66 493.372,-1448.26 496.571,-1446 568.518,-1395.17 803.142,-1411.05 889.571,-1394 1108.29,-1350.85 1374.57,-1488.94 1374.57,-1266 1374.57,-1266 1374.57,-1266 1374.57,-464 1374.57,-370.181 1351.02,-335.61 1278.57,-276 1212.68,-221.788 1118.37,-197.543 1045.31,-186.712"/>
<ellipse fill="none" stroke="#b91022" cx="484.236" cy="-1455.87" rx="4.00002" ry="4.00002"/>
<polygon fill="#b91022" stroke="#b91022" points="1045.05,-186.675 1035.78,-180.815 1040.1,-185.973 1035.15,-185.271 1035.15,-185.271 1035.15,-185.271 1040.1,-185.973 1034.52,-189.726 1045.05,-186.675 1045.05,-186.675"/>
</g>
<!-- Page&#45;&gt;Redirect -->
<g id="edge14" class="edge"><title>Page&#45;&gt;Redirect</title>
<path fill="none" stroke="#92ab97" d="M313.818,-1450.12C312.745,-1448.73 311.662,-1447.36 310.571,-1446 228.966,-1344.6 79.5705,-1396.16 79.5705,-1266 79.5705,-1266 79.5705,-1266 79.5705,-679 79.5705,-589.345 38.2148,-342.296 98.5705,-276 139.064,-231.521 308.366,-253.178 366.571,-238 389.658,-231.979 414.002,-223.588 436.382,-214.986"/>
<polygon fill="#92ab97" stroke="#92ab97" points="313.878,-1450.2 316.259,-1460.9 316.871,-1454.2 319.864,-1458.21 319.864,-1458.21 319.864,-1458.21 316.871,-1454.2 323.469,-1455.51 313.878,-1450.2 313.878,-1450.2"/>
<polygon fill="#92ab97" stroke="#92ab97" points="436.528,-214.929 447.48,-215.485 441.186,-213.111 445.844,-211.293 445.844,-211.293 445.844,-211.293 441.186,-213.111 444.208,-207.101 436.528,-214.929 436.528,-214.929"/>
</g>
<!-- Feedback::States -->
<g id="node17" class="node"><title>Feedback::States</title>
<polygon fill="none" stroke="black" stroke-dasharray="1,5" points="1946.57,-1653 1838.57,-1653 1838.57,-1617 1946.57,-1617 1946.57,-1653"/>
<text text-anchor="middle" x="1892.57" y="-1631.3" font-family="Times,serif" font-size="14.00">Feedback::States</text>
</g>
<!-- BlogSweeper -->
<g id="node18" class="node"><title>BlogSweeper</title>
<polygon fill="none" stroke="black" points="1965.07,-1612 1965.07,-1658 2054.07,-1658 2054.07,-1612 1965.07,-1612"/>
<text text-anchor="middle" x="2009.57" y="-1642.8" font-family="Times,serif" font-size="14.00">BlogSweeper</text>
<polyline fill="none" stroke="black" points="1965.07,-1635 2054.07,-1635 "/>
<text text-anchor="middle" x="2009.57" y="-1619.8" font-family="Times,serif" font-size="14.00"> </text>
</g>
<!-- Article&#45;&gt;User -->
<g id="edge17" class="edge"><title>Article&#45;&gt;User</title>
<path fill="none" stroke="#cff517" d="M707.985,-992.691C670.485,-1032.64 625.509,-1078.71 582.571,-1118 563.491,-1135.46 542.609,-1153.29 522.01,-1170.22"/>
<polygon fill="#cff517" stroke="#cff517" points="708.064,-992.606 718.183,-988.38 711.481,-988.955 714.898,-985.305 714.898,-985.305 714.898,-985.305 711.481,-988.955 711.612,-982.23 708.064,-992.606 708.064,-992.606"/>
<polygon fill="#cff517" stroke="#cff517" points="521.873,-1170.33 511.284,-1173.18 518.003,-1173.5 514.133,-1176.66 514.133,-1176.66 514.133,-1176.66 518.003,-1173.5 516.982,-1180.15 521.873,-1170.33 521.873,-1170.33"/>
<text text-anchor="middle" x="629.071" y="-1106.3" font-family="Times,serif" font-size="14.00">notify_users</text>
</g>
<!-- Article&#45;&gt;Notification -->
<g id="edge16" class="edge"><title>Article&#45;&gt;Notification</title>
<path fill="none" stroke="#cfe946" d="M708.635,-814.533C662.815,-776.543 603.909,-733.469 544.571,-706 450.251,-662.337 383.406,-733.597 316.571,-654 265.373,-593.027 277.586,-354.74 286.807,-240.178"/>
<ellipse fill="none" stroke="#cfe946" cx="711.941" cy="-817.294" rx="4.00002" ry="4.00002"/>
<polygon fill="#cfe946" stroke="#cfe946" points="286.811,-240.118 292.116,-230.52 287.221,-235.134 287.631,-230.151 287.631,-230.151 287.631,-230.151 287.221,-235.134 283.147,-229.782 286.811,-240.118 286.811,-240.118"/>
</g>
<!-- Article&#45;&gt;Resource -->
<g id="edge24" class="edge"><title>Article&#45;&gt;Resource</title>
<path fill="none" stroke="#baea6f" d="M722.755,-699.219C710.547,-666.562 698.114,-633.303 686.605,-602.518"/>
<ellipse fill="none" stroke="#baea6f" cx="724.224" cy="-703.149" rx="4.00001" ry="4.00001"/>
<polygon fill="#baea6f" stroke="#baea6f" points="686.566,-602.413 687.28,-591.47 684.815,-597.73 683.064,-593.046 683.064,-593.046 683.064,-593.046 684.815,-597.73 678.849,-594.622 686.566,-602.413 686.566,-602.413"/>
</g>
<!-- Article&#45;&gt;Comment -->
<g id="edge27" class="edge"><title>Article&#45;&gt;Comment</title>
<path fill="none" stroke="#1e80c0" d="M883.915,-872.885C974.074,-846.243 1109.82,-790.925 1175.57,-688 1183.43,-675.705 1189.27,-662.203 1193.52,-648.119"/>
<ellipse fill="none" stroke="#1e80c0" cx="879.992" cy="-874.025" rx="4.00001" ry="4.00001"/>
<polygon fill="#1e80c0" stroke="#1e80c0" points="1193.57,-647.928 1200.55,-639.472 1194.89,-643.106 1196.21,-638.283 1196.21,-638.283 1196.21,-638.283 1194.89,-643.106 1191.87,-637.094 1193.57,-647.928 1193.57,-647.928"/>
</g>
<!-- Article&#45;&gt;Comment -->
<g id="edge28" class="edge"><title>Article&#45;&gt;Comment</title>
<path fill="none" stroke="#0388c1" d="M882.214,-807.045C930.05,-762.451 992.268,-709.733 1054.57,-672 1073,-660.841 1083.84,-668.721 1099.57,-654 1102.38,-651.372 1105.11,-648.639 1107.76,-645.814"/>
<ellipse fill="none" stroke="#0388c1" cx="879.075" cy="-809.986" rx="4.00002" ry="4.00002"/>
<polygon fill="#0388c1" stroke="#0388c1" points="1107.95,-645.595 1117.96,-641.12 1111.28,-641.861 1114.6,-638.127 1114.6,-638.127 1114.6,-638.127 1111.28,-641.861 1111.24,-635.134 1107.95,-645.595 1107.95,-645.595"/>
<text text-anchor="middle" x="1113.07" y="-676.3" font-family="Times,serif" font-size="14.00">published_comments</text>
</g>
<!-- Article&#45;&gt;Redirection -->
<g id="edge18" class="edge"><title>Article&#45;&gt;Redirection</title>
<path fill="none" stroke="#1f2f06" d="M883.541,-705.658C936.193,-687.2 1162.34,-695.239 1194.57,-688 1233.87,-679.174 1256.06,-687.397 1278.57,-654 1325.52,-584.346 1312.88,-352.676 1278.57,-276 1208.96,-120.402 991.062,-66.2776 877.69,-48.3463"/>
<ellipse fill="none" stroke="#1f2f06" cx="879.83" cy="-707.421" rx="4.00002" ry="4.00002"/>
<polygon fill="#1f2f06" stroke="#1f2f06" points="877.602,-48.333 868.398,-42.3717 872.66,-47.5764 867.717,-46.8198 867.717,-46.8198 867.717,-46.8198 872.66,-47.5764 867.037,-51.268 877.602,-48.333 877.602,-48.333"/>
</g>
<!-- Categorization -->
<g id="node22" class="node"><title>Categorization</title>
<path fill="none" stroke="black" d="M1360.57,-131.5C1360.57,-131.5 1462.57,-131.5 1462.57,-131.5 1468.57,-131.5 1474.57,-137.5 1474.57,-143.5 1474.57,-143.5 1474.57,-210.5 1474.57,-210.5 1474.57,-216.5 1468.57,-222.5 1462.57,-222.5 1462.57,-222.5 1360.57,-222.5 1360.57,-222.5 1354.57,-222.5 1348.57,-216.5 1348.57,-210.5 1348.57,-210.5 1348.57,-143.5 1348.57,-143.5 1348.57,-137.5 1354.57,-131.5 1360.57,-131.5"/>
<text text-anchor="middle" x="1411.57" y="-207.3" font-family="Times,serif" font-size="14.00">Categorization</text>
<polyline fill="none" stroke="black" points="1348.57,-199.5 1474.57,-199.5 "/>
<text text-anchor="start" x="1356.57" y="-184.3" font-family="Times,serif" font-size="14.00">id :INTEGER</text>
<text text-anchor="start" x="1356.57" y="-169.3" font-family="Times,serif" font-size="14.00">article_id :integer</text>
<text text-anchor="start" x="1356.57" y="-154.3" font-family="Times,serif" font-size="14.00">category_id :integer</text>
<text text-anchor="start" x="1356.57" y="-139.3" font-family="Times,serif" font-size="14.00">is_primary :boolean</text>
</g>
<!-- Article&#45;&gt;Categorization -->
<g id="edge25" class="edge"><title>Article&#45;&gt;Categorization</title>
<path fill="none" stroke="#b8ea87" d="M884.152,-865.923C1018.76,-821.241 1264.33,-731.115 1312.57,-654 1318.2,-644.995 1376.21,-355.722 1400.73,-232.603"/>
<ellipse fill="none" stroke="#b8ea87" cx="880.04" cy="-867.283" rx="4.00001" ry="4.00001"/>
<polygon fill="#b8ea87" stroke="#b8ea87" points="1400.76,-232.431 1407.13,-223.502 1401.74,-227.527 1402.71,-222.623 1402.71,-222.623 1402.71,-222.623 1401.74,-227.527 1398.3,-221.745 1400.76,-232.431 1400.76,-232.431"/>
</g>
<!-- Ping -->
<g id="node26" class="node"><title>Ping</title>
<path fill="none" stroke="black" d="M976.071,-419.5C976.071,-419.5 1079.07,-419.5 1079.07,-419.5 1085.07,-419.5 1091.07,-425.5 1091.07,-431.5 1091.07,-431.5 1091.07,-498.5 1091.07,-498.5 1091.07,-504.5 1085.07,-510.5 1079.07,-510.5 1079.07,-510.5 976.071,-510.5 976.071,-510.5 970.071,-510.5 964.071,-504.5 964.071,-498.5 964.071,-498.5 964.071,-431.5 964.071,-431.5 964.071,-425.5 970.071,-419.5 976.071,-419.5"/>
<text text-anchor="middle" x="1027.57" y="-495.3" font-family="Times,serif" font-size="14.00">Ping</text>
<polyline fill="none" stroke="black" points="964.071,-487.5 1091.07,-487.5 "/>
<text text-anchor="start" x="972.071" y="-472.3" font-family="Times,serif" font-size="14.00">id :INTEGER</text>
<text text-anchor="start" x="972.071" y="-457.3" font-family="Times,serif" font-size="14.00">article_id :integer</text>
<text text-anchor="start" x="972.071" y="-442.3" font-family="Times,serif" font-size="14.00">url :varchar(255)</text>
<text text-anchor="start" x="972.071" y="-427.3" font-family="Times,serif" font-size="14.00">created_at :datetime</text>
</g>
<!-- Article&#45;&gt;Ping -->
<g id="edge21" class="edge"><title>Article&#45;&gt;Ping</title>
<path fill="none" stroke="#e8dc64" d="M881.365,-792.048C905.578,-760.082 930.494,-723.773 949.571,-688 978.493,-633.765 1000.36,-566.596 1013.48,-520.43"/>
<ellipse fill="none" stroke="#e8dc64" cx="878.638" cy="-795.622" rx="4.00002" ry="4.00002"/>
<polygon fill="#e8dc64" stroke="#e8dc64" points="1013.53,-520.251 1020.56,-511.834 1014.87,-515.436 1016.22,-510.621 1016.22,-510.621 1016.22,-510.621 1014.87,-515.436 1011.89,-509.408 1013.53,-520.251 1013.53,-520.251"/>
</g>
<!-- Feedback -->
<g id="node27" class="node"><title>Feedback</title>
<path fill="none" stroke="black" d="M758.071,-292C758.071,-292 895.071,-292 895.071,-292 901.071,-292 907.071,-298 907.071,-304 907.071,-304 907.071,-626 907.071,-626 907.071,-632 901.071,-638 895.071,-638 895.071,-638 758.071,-638 758.071,-638 752.071,-638 746.071,-632 746.071,-626 746.071,-626 746.071,-304 746.071,-304 746.071,-298 752.071,-292 758.071,-292"/>
<text text-anchor="middle" x="826.571" y="-622.8" font-family="Times,serif" font-size="14.00">Feedback</text>
<polyline fill="none" stroke="black" points="746.071,-615 907.071,-615 "/>
<text text-anchor="start" x="754.071" y="-599.8" font-family="Times,serif" font-size="14.00">id :INTEGER</text>
<text text-anchor="start" x="754.071" y="-584.8" font-family="Times,serif" font-size="14.00">type :varchar(255)</text>
<text text-anchor="start" x="754.071" y="-569.8" font-family="Times,serif" font-size="14.00">title :varchar(255)</text>
<text text-anchor="start" x="754.071" y="-554.8" font-family="Times,serif" font-size="14.00">author :varchar(255)</text>
<text text-anchor="start" x="754.071" y="-539.8" font-family="Times,serif" font-size="14.00">body :text</text>
<text text-anchor="start" x="754.071" y="-524.8" font-family="Times,serif" font-size="14.00">excerpt :text</text>
<text text-anchor="start" x="754.071" y="-509.8" font-family="Times,serif" font-size="14.00">created_at :datetime</text>
<text text-anchor="start" x="754.071" y="-494.8" font-family="Times,serif" font-size="14.00">updated_at :datetime</text>
<text text-anchor="start" x="754.071" y="-479.8" font-family="Times,serif" font-size="14.00">user_id :integer</text>
<text text-anchor="start" x="754.071" y="-464.8" font-family="Times,serif" font-size="14.00">guid :varchar(255)</text>
<text text-anchor="start" x="754.071" y="-449.8" font-family="Times,serif" font-size="14.00">text_filter_id :integer</text>
<text text-anchor="start" x="754.071" y="-434.8" font-family="Times,serif" font-size="14.00">whiteboard :text</text>
<text text-anchor="start" x="754.071" y="-419.8" font-family="Times,serif" font-size="14.00">article_id :integer</text>
<text text-anchor="start" x="754.071" y="-404.8" font-family="Times,serif" font-size="14.00">email :varchar(255)</text>
<text text-anchor="start" x="754.071" y="-389.8" font-family="Times,serif" font-size="14.00">url :varchar(255)</text>
<text text-anchor="start" x="754.071" y="-374.8" font-family="Times,serif" font-size="14.00">ip :varchar(40)</text>
<text text-anchor="start" x="754.071" y="-359.8" font-family="Times,serif" font-size="14.00">blog_name :varchar(255)</text>
<text text-anchor="start" x="754.071" y="-344.8" font-family="Times,serif" font-size="14.00">published :boolean</text>
<text text-anchor="start" x="754.071" y="-329.8" font-family="Times,serif" font-size="14.00">published_at :datetime</text>
<text text-anchor="start" x="754.071" y="-314.8" font-family="Times,serif" font-size="14.00">state :varchar(255)</text>
<text text-anchor="start" x="754.071" y="-299.8" font-family="Times,serif" font-size="14.00">status_confirmed :boolean</text>
</g>
<!-- Article&#45;&gt;Feedback -->
<g id="edge23" class="edge"><title>Article&#45;&gt;Feedback</title>
<path fill="none" stroke="#ad344b" d="M790.863,-698.519C791.297,-689.55 791.859,-680.677 792.571,-672 793.206,-664.253 793.973,-656.357 794.846,-648.394"/>
<ellipse fill="none" stroke="#ad344b" cx="790.675" cy="-702.783" rx="4" ry="4"/>
<polygon fill="#ad344b" stroke="#ad344b" points="794.867,-648.211 800.476,-638.789 795.436,-643.244 796.006,-638.276 796.006,-638.276 796.006,-638.276 795.436,-643.244 791.535,-637.763 794.867,-648.211 794.867,-648.211"/>
</g>
<!-- Article&#45;&gt;Feedback -->
<g id="edge30" class="edge"><title>Article&#45;&gt;Feedback</title>
<path fill="none" stroke="#503eed" d="M809.705,-698.854C810.918,-682.102 812.143,-665.195 813.349,-648.547"/>
<ellipse fill="none" stroke="#503eed" cx="809.411" cy="-702.906" rx="4" ry="4"/>
<polygon fill="#503eed" stroke="#503eed" points="813.374,-648.193 818.585,-638.544 813.735,-643.206 814.097,-638.219 814.097,-638.219 814.097,-638.219 813.735,-643.206 809.608,-637.894 813.374,-648.193 813.374,-648.193"/>
<text text-anchor="middle" x="866.071" y="-676.3" font-family="Times,serif" font-size="14.00">published_feedback</text>
</g>
<!-- Category -->
<g id="node28" class="node"><title>Category</title>
<path fill="none" stroke="black" d="M1414.07,-397C1414.07,-397 1539.07,-397 1539.07,-397 1545.07,-397 1551.07,-403 1551.07,-409 1551.07,-409 1551.07,-521 1551.07,-521 1551.07,-527 1545.07,-533 1539.07,-533 1539.07,-533 1414.07,-533 1414.07,-533 1408.07,-533 1402.07,-527 1402.07,-521 1402.07,-521 1402.07,-409 1402.07,-409 1402.07,-403 1408.07,-397 1414.07,-397"/>
<text text-anchor="middle" x="1476.57" y="-517.8" font-family="Times,serif" font-size="14.00">Category</text>
<polyline fill="none" stroke="black" points="1402.07,-510 1551.07,-510 "/>
<text text-anchor="start" x="1410.07" y="-494.8" font-family="Times,serif" font-size="14.00">id :INTEGER</text>
<text text-anchor="start" x="1410.07" y="-479.8" font-family="Times,serif" font-size="14.00">name :varchar(255)</text>
<text text-anchor="start" x="1410.07" y="-464.8" font-family="Times,serif" font-size="14.00">position :integer</text>
<text text-anchor="start" x="1410.07" y="-449.8" font-family="Times,serif" font-size="14.00">permalink :varchar(255)</text>
<text text-anchor="start" x="1410.07" y="-434.8" font-family="Times,serif" font-size="14.00">keywords :text</text>
<text text-anchor="start" x="1410.07" y="-419.8" font-family="Times,serif" font-size="14.00">description :text</text>
<text text-anchor="start" x="1410.07" y="-404.8" font-family="Times,serif" font-size="14.00">parent_id :integer</text>
</g>
<!-- Article&#45;&gt;Category -->
<g id="edge26" class="edge"><title>Article&#45;&gt;Category</title>
<path fill="none" stroke="#cce1c1" d="M885.711,-851.168C977.483,-809.039 1124.75,-745.464 1257.57,-706 1297.93,-694.009 1316.38,-712.56 1350.57,-688 1399.86,-652.6 1432.47,-591.559 1452.14,-542.433"/>
<polygon fill="#cce1c1" stroke="#cce1c1" points="885.538,-851.248 874.573,-851.343 880.997,-853.339 876.455,-855.431 876.455,-855.431 876.455,-855.431 880.997,-853.339 878.338,-859.518 885.538,-851.248 885.538,-851.248"/>
<polygon fill="#cce1c1" stroke="#cce1c1" points="1452.15,-542.409 1459.97,-534.728 1453.96,-537.751 1455.78,-533.093 1455.78,-533.093 1455.78,-533.093 1453.96,-537.751 1451.59,-531.457 1452.15,-542.409 1452.15,-542.409"/>
</g>
<!-- Trackback -->
<g id="node29" class="node"><title>Trackback</title>
<path fill="none" stroke="black" d="M338.071,-292C338.071,-292 475.071,-292 475.071,-292 481.071,-292 487.071,-298 487.071,-304 487.071,-304 487.071,-626 487.071,-626 487.071,-632 481.071,-638 475.071,-638 475.071,-638 338.071,-638 338.071,-638 332.071,-638 326.071,-632 326.071,-626 326.071,-626 326.071,-304 326.071,-304 326.071,-298 332.071,-292 338.071,-292"/>
<text text-anchor="middle" x="406.571" y="-622.8" font-family="Times,serif" font-size="14.00">Trackback</text>
<polyline fill="none" stroke="black" points="326.071,-615 487.071,-615 "/>
<text text-anchor="start" x="334.071" y="-599.8" font-family="Times,serif" font-size="14.00">id :INTEGER</text>
<text text-anchor="start" x="334.071" y="-584.8" font-family="Times,serif" font-size="14.00">type :varchar(255)</text>
<text text-anchor="start" x="334.071" y="-569.8" font-family="Times,serif" font-size="14.00">title :varchar(255)</text>
<text text-anchor="start" x="334.071" y="-554.8" font-family="Times,serif" font-size="14.00">author :varchar(255)</text>
<text text-anchor="start" x="334.071" y="-539.8" font-family="Times,serif" font-size="14.00">body :text</text>
<text text-anchor="start" x="334.071" y="-524.8" font-family="Times,serif" font-size="14.00">excerpt :text</text>
<text text-anchor="start" x="334.071" y="-509.8" font-family="Times,serif" font-size="14.00">created_at :datetime</text>
<text text-anchor="start" x="334.071" y="-494.8" font-family="Times,serif" font-size="14.00">updated_at :datetime</text>
<text text-anchor="start" x="334.071" y="-479.8" font-family="Times,serif" font-size="14.00">user_id :integer</text>
<text text-anchor="start" x="334.071" y="-464.8" font-family="Times,serif" font-size="14.00">guid :varchar(255)</text>
<text text-anchor="start" x="334.071" y="-449.8" font-family="Times,serif" font-size="14.00">text_filter_id :integer</text>
<text text-anchor="start" x="334.071" y="-434.8" font-family="Times,serif" font-size="14.00">whiteboard :text</text>
<text text-anchor="start" x="334.071" y="-419.8" font-family="Times,serif" font-size="14.00">article_id :integer</text>
<text text-anchor="start" x="334.071" y="-404.8" font-family="Times,serif" font-size="14.00">email :varchar(255)</text>
<text text-anchor="start" x="334.071" y="-389.8" font-family="Times,serif" font-size="14.00">url :varchar(255)</text>
<text text-anchor="start" x="334.071" y="-374.8" font-family="Times,serif" font-size="14.00">ip :varchar(40)</text>
<text text-anchor="start" x="334.071" y="-359.8" font-family="Times,serif" font-size="14.00">blog_name :varchar(255)</text>
<text text-anchor="start" x="334.071" y="-344.8" font-family="Times,serif" font-size="14.00">published :boolean</text>
<text text-anchor="start" x="334.071" y="-329.8" font-family="Times,serif" font-size="14.00">published_at :datetime</text>
<text text-anchor="start" x="334.071" y="-314.8" font-family="Times,serif" font-size="14.00">state :varchar(255)</text>
<text text-anchor="start" x="334.071" y="-299.8" font-family="Times,serif" font-size="14.00">status_confirmed :boolean</text>
</g>
<!-- Article&#45;&gt;Trackback -->
<g id="edge22" class="edge"><title>Article&#45;&gt;Trackback</title>
<path fill="none" stroke="#4a73e7" d="M708.386,-830.688C655.69,-793.194 586.709,-745.46 523.571,-706 509.733,-697.352 502.232,-700.353 491.571,-688 480.908,-675.646 471.511,-661.811 463.244,-647.248"/>
<ellipse fill="none" stroke="#4a73e7" cx="711.799" cy="-833.12" rx="4.00002" ry="4.00002"/>
<polygon fill="#4a73e7" stroke="#4a73e7" points="463.036,-646.869 462.189,-635.936 460.638,-642.481 458.241,-638.094 458.241,-638.094 458.241,-638.094 460.638,-642.481 454.292,-640.252 463.036,-646.869 463.036,-646.869"/>
</g>
<!-- Article&#45;&gt;Trackback -->
<g id="edge29" class="edge"><title>Article&#45;&gt;Trackback</title>
<path fill="none" stroke="#abc616" d="M707.78,-846.326C646.513,-809.547 566.243,-753.903 511.571,-688 500.989,-675.245 491.2,-661.245 482.207,-646.672"/>
<ellipse fill="none" stroke="#abc616" cx="711.34" cy="-848.447" rx="4.00002" ry="4.00002"/>
<polygon fill="#abc616" stroke="#abc616" points="482.162,-646.598 480.859,-635.71 479.583,-642.315 477.004,-638.031 477.004,-638.031 477.004,-638.031 479.583,-642.315 473.149,-640.352 482.162,-646.598 482.162,-646.598"/>
<text text-anchor="middle" x="570.571" y="-676.3" font-family="Times,serif" font-size="14.00">published_trackbacks</text>
</g>
<!-- Article&#45;&gt;Trigger -->
<g id="edge20" class="edge"><title>Article&#45;&gt;Trigger</title>
<path fill="none" stroke="#ef1cac" d="M880.491,-778.574C897.17,-750.27 912.343,-719.126 921.571,-688 967.768,-532.163 954.928,-337.686 943.952,-240.039"/>
<ellipse fill="none" stroke="#ef1cac" cx="878.275" cy="-782.274" rx="4.00002" ry="4.00002"/>
<polygon fill="#ef1cac" stroke="#ef1cac" points="943.945,-239.976 947.267,-229.525 943.371,-235.009 942.797,-230.042 942.797,-230.042 942.797,-230.042 943.371,-235.009 938.326,-230.559 943.945,-239.976 943.945,-239.976"/>
</g>
<!-- Article&#45;&gt;Redirect -->
<g id="edge19" class="edge"><title>Article&#45;&gt;Redirect</title>
<path fill="none" stroke="#08c6c5" d="M708.616,-744.996C686.122,-717.021 659.628,-690.721 629.571,-672 592.723,-649.05 561.713,-687.053 533.571,-654 483.125,-594.752 500.385,-365.218 513.051,-247.897"/>
<polygon fill="#08c6c5" stroke="#08c6c5" points="708.671,-745.067 711.317,-755.709 711.763,-748.996 714.854,-752.926 714.854,-752.926 714.854,-752.926 711.763,-748.996 718.391,-750.144 708.671,-745.067 708.671,-745.067"/>
<polygon fill="#08c6c5" stroke="#08c6c5" points="513.054,-247.872 518.618,-238.423 513.599,-242.902 514.145,-237.932 514.145,-237.932 514.145,-237.932 513.599,-242.902 509.672,-237.441 513.054,-247.872 513.054,-247.872"/>
</g>
<!-- PageCache -->
<g id="node20" class="node"><title>PageCache</title>
<polygon fill="none" stroke="black" points="2072.07,-1612 2072.07,-1658 2149.07,-1658 2149.07,-1612 2072.07,-1612"/>
<text text-anchor="middle" x="2110.57" y="-1642.8" font-family="Times,serif" font-size="14.00">PageCache</text>
<polyline fill="none" stroke="black" points="2072.07,-1635 2149.07,-1635 "/>
<text text-anchor="middle" x="2110.57" y="-1619.8" font-family="Times,serif" font-size="14.00"> </text>
</g>
<!-- Blog -->
<g id="node21" class="node"><title>Blog</title>
<path fill="none" stroke="black" d="M2179.57,-1597C2179.57,-1597 2295.57,-1597 2295.57,-1597 2301.57,-1597 2307.57,-1603 2307.57,-1609 2307.57,-1609 2307.57,-1661 2307.57,-1661 2307.57,-1667 2301.57,-1673 2295.57,-1673 2295.57,-1673 2179.57,-1673 2179.57,-1673 2173.57,-1673 2167.57,-1667 2167.57,-1661 2167.57,-1661 2167.57,-1609 2167.57,-1609 2167.57,-1603 2173.57,-1597 2179.57,-1597"/>
<text text-anchor="middle" x="2237.57" y="-1657.8" font-family="Times,serif" font-size="14.00">Blog</text>
<polyline fill="none" stroke="black" points="2167.57,-1650 2307.57,-1650 "/>
<text text-anchor="start" x="2175.57" y="-1634.8" font-family="Times,serif" font-size="14.00">id :INTEGER</text>
<text text-anchor="start" x="2175.57" y="-1619.8" font-family="Times,serif" font-size="14.00">settings :text</text>
<text text-anchor="start" x="2175.57" y="-1604.8" font-family="Times,serif" font-size="14.00">base_url :varchar(255)</text>
</g>
<!-- ConfigManager -->
<g id="node23" class="node"><title>ConfigManager</title>
<polygon fill="none" stroke="black" stroke-dasharray="1,5" points="2428.82,-1653 2326.32,-1653 2326.32,-1617 2428.82,-1617 2428.82,-1653"/>
<text text-anchor="middle" x="2377.57" y="-1631.3" font-family="Times,serif" font-size="14.00">ConfigManager</text>
</g>
<!-- PostType -->
<g id="node24" class="node"><title>PostType</title>
<path fill="none" stroke="black" d="M2459.57,-1589.5C2459.57,-1589.5 2589.57,-1589.5 2589.57,-1589.5 2595.57,-1589.5 2601.57,-1595.5 2601.57,-1601.5 2601.57,-1601.5 2601.57,-1668.5 2601.57,-1668.5 2601.57,-1674.5 2595.57,-1680.5 2589.57,-1680.5 2589.57,-1680.5 2459.57,-1680.5 2459.57,-1680.5 2453.57,-1680.5 2447.57,-1674.5 2447.57,-1668.5 2447.57,-1668.5 2447.57,-1601.5 2447.57,-1601.5 2447.57,-1595.5 2453.57,-1589.5 2459.57,-1589.5"/>
<text text-anchor="middle" x="2524.57" y="-1665.3" font-family="Times,serif" font-size="14.00">PostType</text>
<polyline fill="none" stroke="black" points="2447.57,-1657.5 2601.57,-1657.5 "/>
<text text-anchor="start" x="2455.57" y="-1642.3" font-family="Times,serif" font-size="14.00">id :INTEGER</text>
<text text-anchor="start" x="2455.57" y="-1627.3" font-family="Times,serif" font-size="14.00">name :varchar(255)</text>
<text text-anchor="start" x="2455.57" y="-1612.3" font-family="Times,serif" font-size="14.00">permalink :varchar(255)</text>
<text text-anchor="start" x="2455.57" y="-1597.3" font-family="Times,serif" font-size="14.00">description :varchar(255)</text>
</g>
<!-- Content&#45;&gt;User -->
<g id="edge32" class="edge"><title>Content&#45;&gt;User</title>
<path fill="none" stroke="#68e34d" d="M140.598,-663.034C138.193,-677.513 136.132,-691.946 134.571,-706 116.018,-872.972 55.8105,-935.606 134.571,-1084 165.214,-1141.74 223.568,-1184.34 277.83,-1213.56"/>
<polygon fill="#68e34d" stroke="#68e34d" points="140.627,-662.863 146.751,-653.766 141.472,-657.934 142.316,-653.006 142.316,-653.006 142.316,-653.006 141.472,-657.934 137.881,-652.246 140.627,-662.863 140.627,-662.863"/>
<polygon fill="#68e34d" stroke="#68e34d" points="278.004,-1213.65 284.75,-1222.3 282.426,-1215.99 286.849,-1218.32 286.849,-1218.32 286.849,-1218.32 282.426,-1215.99 288.948,-1214.34 278.004,-1213.65 278.004,-1213.65"/>
<text text-anchor="middle" x="168.071" y="-891.3" font-family="Times,serif" font-size="14.00">notify_users</text>
</g>
<!-- Content&#45;&gt;Notification -->
<g id="edge31" class="edge"><title>Content&#45;&gt;Notification</title>
<path fill="none" stroke="#16f9cb" d="M259.472,-269.022C263.187,-258.805 266.753,-248.998 270.079,-239.852"/>
<ellipse fill="none" stroke="#16f9cb" cx="258.001" cy="-273.066" rx="4.00001" ry="4.00001"/>
<polygon fill="#16f9cb" stroke="#16f9cb" points="270.171,-239.598 277.818,-231.738 271.88,-234.899 273.589,-230.2 273.589,-230.2 273.589,-230.2 271.88,-234.899 269.36,-228.662 270.171,-239.598 270.171,-239.598"/>
</g>
<!-- Content&#45;&gt;Redirection -->
<g id="edge33" class="edge"><title>Content&#45;&gt;Redirection</title>
<path fill="none" stroke="#2dc593" d="M161.552,-268.556C164.374,-212.863 178.938,-156.41 217.571,-116 252.984,-78.9569 588.16,-53.6684 736.976,-44.1753"/>
<ellipse fill="none" stroke="#2dc593" cx="161.382" cy="-272.769" rx="4" ry="4"/>
<polygon fill="#2dc593" stroke="#2dc593" points="737.381,-44.1497 747.645,-48.0102 742.372,-43.8344 747.362,-43.5191 747.362,-43.5191 747.362,-43.5191 742.372,-43.8344 747.078,-39.0281 737.381,-44.1497 737.381,-44.1497"/>
</g>
<!-- Content&#45;&gt;Trigger -->
<g id="edge35" class="edge"><title>Content&#45;&gt;Trigger</title>
<path fill="none" stroke="#885ef7" d="M274.824,-310.836C287.351,-297.444 301.263,-285.425 316.571,-276 371.729,-242.039 541.575,-248.019 605.571,-238 679.156,-226.48 761.59,-211.493 825.66,-199.38"/>
<ellipse fill="none" stroke="#885ef7" cx="271.851" cy="-314.117" rx="4.00002" ry="4.00002"/>
<polygon fill="#885ef7" stroke="#885ef7" points="825.956,-199.324 836.619,-201.883 830.869,-198.393 835.781,-197.461 835.781,-197.461 835.781,-197.461 830.869,-198.393 834.943,-193.04 825.956,-199.324 825.956,-199.324"/>
</g>
<!-- Content&#45;&gt;Redirect -->
<g id="edge34" class="edge"><title>Content&#45;&gt;Redirect</title>
<path fill="none" stroke="#db94db" d="M275.861,-318.312C288.401,-302.995 302.029,-288.486 316.571,-276 351.482,-246.024 397.141,-223.018 436.505,-206.854"/>
<polygon fill="#db94db" stroke="#db94db" points="275.648,-318.579 265.889,-323.579 272.526,-322.484 269.404,-326.389 269.404,-326.389 269.404,-326.389 272.526,-322.484 272.919,-329.199 275.648,-318.579 275.648,-318.579"/>
<polygon fill="#db94db" stroke="#db94db" points="436.564,-206.831 447.521,-207.274 441.203,-204.965 445.842,-203.099 445.842,-203.099 445.842,-203.099 441.203,-204.965 444.163,-198.924 436.564,-206.831 436.564,-206.831"/>
</g>
<!-- Feedback&#45;&gt;User -->
<g id="edge37" class="edge"><title>Feedback&#45;&gt;User</title>
<path fill="none" stroke="#08da29" d="M748.281,-644.957C744.552,-648.187 740.651,-651.212 736.571,-654 692.229,-684.299 535.069,-635.612 495.571,-672 427.401,-734.801 445.412,-992.508 430.571,-1084 428.324,-1097.85 425.957,-1112.29 423.579,-1126.71"/>
<polygon fill="#08da29" stroke="#08da29" points="748.378,-644.866 758.764,-641.344 752.038,-641.458 755.697,-638.051 755.697,-638.051 755.697,-638.051 752.038,-641.458 752.63,-634.758 748.378,-644.866 748.378,-644.866"/>
<polygon fill="#08da29" stroke="#08da29" points="423.562,-1126.81 417.492,-1135.94 422.747,-1131.74 421.932,-1136.68 421.932,-1136.68 421.932,-1136.68 422.747,-1131.74 426.372,-1137.41 423.562,-1126.81 423.562,-1126.81"/>
<text text-anchor="middle" x="507.071" y="-891.3" font-family="Times,serif" font-size="14.00">notify_users</text>
</g>
<!-- Feedback&#45;&gt;Notification -->
<g id="edge36" class="edge"><title>Feedback&#45;&gt;Notification</title>
<path fill="none" stroke="#90e475" d="M749.381,-286.218C745.32,-282.556 741.053,-279.136 736.571,-276 702.543,-252.197 591.719,-263.592 550.571,-258 499.599,-251.073 485.947,-252.425 436.571,-238 413.596,-231.288 389.323,-222.06 367.385,-212.853"/>
<ellipse fill="none" stroke="#90e475" cx="752.29" cy="-288.99" rx="4.00002" ry="4.00002"/>
<polygon fill="#90e475" stroke="#90e475" points="367.338,-212.833 359.9,-204.775 362.738,-210.874 358.137,-208.915 358.137,-208.915 358.137,-208.915 362.738,-210.874 356.375,-213.056 367.338,-212.833 367.338,-212.833"/>
</g>
<!-- Feedback&#45;&gt;Redirection -->
<g id="edge38" class="edge"><title>Feedback&#45;&gt;Redirection</title>
<path fill="none" stroke="#20649e" d="M818.48,-283.45C815.263,-211.663 811.826,-134.954 809.688,-87.2436"/>
<ellipse fill="none" stroke="#20649e" cx="818.677" cy="-287.853" rx="4" ry="4"/>
<polygon fill="#20649e" stroke="#20649e" points="809.686,-87.213 813.734,-77.0215 809.462,-82.218 809.239,-77.223 809.239,-77.223 809.239,-77.223 809.462,-82.218 804.743,-77.4245 809.686,-87.213 809.686,-87.213"/>
</g>
<!-- Feedback&#45;&gt;Trigger -->
<g id="edge40" class="edge"><title>Feedback&#45;&gt;Trigger</title>
<path fill="none" stroke="#d16152" d="M895.058,-284.3C901.069,-268.527 906.837,-253.394 912.04,-239.74"/>
<ellipse fill="none" stroke="#d16152" cx="893.602" cy="-288.119" rx="4.00001" ry="4.00001"/>
<polygon fill="#d16152" stroke="#d16152" points="912.164,-239.415 919.93,-231.674 913.945,-234.743 915.725,-230.071 915.725,-230.071 915.725,-230.071 913.945,-234.743 911.52,-228.468 912.164,-239.415 912.164,-239.415"/>
</g>
<!-- Feedback&#45;&gt;Redirect -->
<g id="edge39" class="edge"><title>Feedback&#45;&gt;Redirect</title>
<path fill="none" stroke="#cdeea7" d="M744.391,-284.151C741.852,-281.347 739.246,-278.626 736.571,-276 700.709,-240.807 649.945,-216.856 606.749,-201.446"/>
<polygon fill="#cdeea7" stroke="#cdeea7" points="744.422,-284.187 747.544,-294.699 747.687,-287.974 750.952,-291.761 750.952,-291.761 750.952,-291.761 747.687,-287.974 754.36,-288.822 744.422,-284.187 744.422,-284.187"/>
<polygon fill="#cdeea7" stroke="#cdeea7" points="606.536,-201.372 598.563,-193.844 601.812,-199.734 597.088,-198.095 597.088,-198.095 597.088,-198.095 601.812,-199.734 595.613,-202.347 606.536,-201.372 606.536,-201.372"/>
</g>
<!-- Category&#45;&gt;Categorization -->
<g id="edge42" class="edge"><title>Category&#45;&gt;Categorization</title>
<path fill="none" stroke="#297f4b" d="M1459.51,-388.947C1448.38,-339.964 1434.1,-277.123 1424.03,-232.813"/>
<ellipse fill="none" stroke="#297f4b" cx="1460.44" cy="-393.045" rx="4.00001" ry="4.00001"/>
<polygon fill="#297f4b" stroke="#297f4b" points="1423.97,-232.563 1426.14,-221.814 1422.86,-227.687 1421.75,-222.812 1421.75,-222.812 1421.75,-222.812 1422.86,-227.687 1417.37,-223.809 1423.97,-232.563 1423.97,-232.563"/>
</g>
<!-- Category&#45;&gt;Category -->
<g id="edge41" class="edge"><title>Category&#45;&gt;Category</title>
<path fill="none" stroke="#0804fc" d="M1557.96,-494.804C1564.51,-488.309 1568.57,-478.375 1568.57,-465 1568.57,-452.444 1564.99,-442.92 1559.14,-436.428"/>
<ellipse fill="none" stroke="#0804fc" cx="1554.49" cy="-497.403" rx="4.00002" ry="4.00002"/>
<polygon fill="#0804fc" stroke="#0804fc" points="1559.12,-436.417 1554.09,-426.675 1555.21,-433.308 1551.29,-430.199 1551.29,-430.199 1551.29,-430.199 1555.21,-433.308 1548.5,-433.723 1559.12,-436.417 1559.12,-436.417"/>
<text text-anchor="middle" x="1591.07" y="-461.3" font-family="Times,serif" font-size="14.00">children</text>
</g>
<!-- Trackback&#45;&gt;User -->
<g id="edge44" class="edge"><title>Trackback&#45;&gt;User</title>
<path fill="none" stroke="#c96994" d="M370.43,-648.353C367.625,-667.75 365.238,-687.24 363.571,-706 348.698,-873.34 346.57,-916.862 363.571,-1084 364.987,-1097.93 367.005,-1112.37 369.376,-1126.73"/>
<polygon fill="#c96994" stroke="#c96994" points="370.466,-648.113 376.385,-638.882 371.2,-643.167 371.934,-638.222 371.934,-638.222 371.934,-638.222 371.2,-643.167 367.483,-637.561 370.466,-648.113 370.466,-648.113"/>
<polygon fill="#c96994" stroke="#c96994" points="369.388,-1126.8 366.635,-1137.42 370.23,-1131.73 371.071,-1136.66 371.071,-1136.66 371.071,-1136.66 370.23,-1131.73 375.507,-1135.9 369.388,-1126.8 369.388,-1126.8"/>
<text text-anchor="middle" x="397.071" y="-891.3" font-family="Times,serif" font-size="14.00">notify_users</text>
</g>
<!-- Trackback&#45;&gt;Notification -->
<g id="edge43" class="edge"><title>Trackback&#45;&gt;Notification</title>
<path fill="none" stroke="#81332e" d="M334.942,-284.3C328.655,-268.527 322.623,-253.394 317.18,-239.74"/>
<ellipse fill="none" stroke="#81332e" cx="336.473" cy="-288.141" rx="4.00001" ry="4.00001"/>
<polygon fill="#81332e" stroke="#81332e" points="317.029,-239.36 317.506,-228.405 315.178,-234.716 313.326,-230.071 313.326,-230.071 313.326,-230.071 315.178,-234.716 309.146,-231.737 317.029,-239.36 317.029,-239.36"/>
</g>
<!-- Trackback&#45;&gt;Redirection -->
<g id="edge45" class="edge"><title>Trackback&#45;&gt;Redirection</title>
<path fill="none" stroke="#0baa75" d="M381.506,-283.862C382.914,-224.014 396.343,-161.19 436.571,-116 475.639,-72.1124 641.005,-52.4609 737.264,-44.5965"/>
<ellipse fill="none" stroke="#0baa75" cx="381.447" cy="-287.904" rx="4" ry="4"/>
<polygon fill="#0baa75" stroke="#0baa75" points="737.533,-44.5752 747.858,-48.2691 742.517,-44.1792 747.502,-43.7832 747.502,-43.7832 747.502,-43.7832 742.517,-44.1792 747.145,-39.2973 737.533,-44.5752 737.533,-44.5752"/>
</g>
<!-- Trackback&#45;&gt;Trigger -->
<g id="edge47" class="edge"><title>Trackback&#45;&gt;Trigger</title>
<path fill="none" stroke="#785e76" d="M492.417,-313.259C504.847,-299.255 518.577,-286.433 533.571,-276 580.365,-243.441 723.655,-213.585 825.803,-195.595"/>
<ellipse fill="none" stroke="#785e76" cx="489.785" cy="-316.303" rx="4.00002" ry="4.00002"/>
<polygon fill="#785e76" stroke="#785e76" points="826.015,-195.558 836.64,-198.271 830.94,-194.698 835.866,-193.838 835.866,-193.838 835.866,-193.838 830.94,-194.698 835.091,-189.405 826.015,-195.558 826.015,-195.558"/>
</g>
<!-- Trackback&#45;&gt;Redirect -->
<g id="edge46" class="edge"><title>Trackback&#45;&gt;Redirect</title>
<path fill="none" stroke="#cce78c" d="M479.579,-282.432C484.519,-270.147 489.293,-258.272 493.742,-247.209"/>
<polygon fill="#cce78c" stroke="#cce78c" points="479.52,-282.579 471.614,-290.178 477.654,-287.218 475.789,-291.857 475.789,-291.857 475.789,-291.857 477.654,-287.218 479.964,-293.535 479.52,-282.579 479.52,-282.579"/>
<polygon fill="#cce78c" stroke="#cce78c" points="493.832,-246.984 501.738,-239.385 495.697,-242.345 497.563,-237.706 497.563,-237.706 497.563,-237.706 495.697,-242.345 493.388,-236.027 493.832,-246.984 493.832,-246.984"/>
</g>
<!-- Theme -->
<g id="node31" class="node"><title>Theme</title>
<polygon fill="none" stroke="black" points="2620.07,-1612 2620.07,-1658 2675.07,-1658 2675.07,-1612 2620.07,-1612"/>
<text text-anchor="middle" x="2647.57" y="-1642.8" font-family="Times,serif" font-size="14.00">Theme</text>
<polyline fill="none" stroke="black" points="2620.07,-1635 2675.07,-1635 "/>
<text text-anchor="middle" x="2647.57" y="-1619.8" font-family="Times,serif" font-size="14.00"> </text>
</g>
<!-- Redirect&#45;&gt;Redirection -->
<g id="edge48" class="edge"><title>Redirect&#45;&gt;Redirection</title>
<path fill="none" stroke="#ba9e6d" d="M604.342,-136.64C646.796,-116.452 697.915,-92.1437 738.264,-72.957"/>
<ellipse fill="none" stroke="#ba9e6d" cx="600.7" cy="-138.372" rx="4.00002" ry="4.00002"/>
<polygon fill="#ba9e6d" stroke="#ba9e6d" points="738.457,-72.8654 749.42,-72.6348 742.972,-70.7182 747.488,-68.5709 747.488,-68.5709 747.488,-68.5709 742.972,-70.7182 745.555,-64.507 738.457,-72.8654 738.457,-72.8654"/>
</g>
</g>
</svg>
