<?xml version="1.0" encoding="UTF-8" standalone="no"?>
<!DOCTYPE svg PUBLIC "-//W3C//DTD SVG 1.1//EN"
 "http://www.w3.org/Graphics/SVG/1.1/DTD/svg11.dtd">
<!-- Generated by graphviz version 2.36.0 (20140111.2315)
 -->
<!-- Title: models_diagram Pages: 1 -->
<svg width="1993pt" height="498pt"
 viewBox="0.00 0.00 1993.00 498.00" xmlns="http://www.w3.org/2000/svg" xmlns:xlink="http://www.w3.org/1999/xlink">
<g id="graph0" class="graph" transform="scale(1 1) rotate(0) translate(4 494)">
<title>models_diagram</title>
<polygon fill="none" stroke="none" points="-4,4 -4,-494 1989,-494 1989,4 -4,4"/>
<!-- _diagram_info -->
<g id="node1" class="node"><title>_diagram_info</title>
<text text-anchor="start" x="177" y="-475.6" font-family="Times,serif" font-size="13.00">Models diagram</text>
<text text-anchor="start" x="177" y="-461.6" font-family="Times,serif" font-size="13.00">Date: Jan 26 2016 &#45; 02:02</text>
<text text-anchor="start" x="177" y="-447.6" font-family="Times,serif" font-size="13.00">Migration version: 104</text>
<text text-anchor="start" x="177" y="-433.6" font-family="Times,serif" font-size="13.00">Generated by RailRoady 1.4.2</text>
<text text-anchor="start" x="177" y="-419.6" font-family="Times,serif" font-size="13.00">http://railroady.prestonlee.com</text>
</g>
<!-- User -->
<g id="node2" class="node"><title>User</title>
<ellipse fill="none" stroke="black" cx="397" cy="-342" rx="26.949" ry="18"/>
<text text-anchor="middle" x="397" y="-338.3" font-family="Times,serif" font-size="14.00">User</text>
</g>
<!-- Notification -->
<g id="node6" class="node"><title>Notification</title>
<ellipse fill="none" stroke="black" cx="227" cy="-92" rx="52.9443" ry="18"/>
<text text-anchor="middle" x="227" y="-88.3" font-family="Times,serif" font-size="14.00">Notification</text>
</g>
<!-- User&#45;&gt;Notification -->
<g id="edge1" class="edge"><title>User&#45;&gt;Notification</title>
<path fill="none" stroke="#443f05" d="M362,-338.668C304.304,-334.368 192.11,-323.948 157,-306 146.359,-300.56 77.5558,-231.779 72,-218 50.0939,-163.67 125.101,-126.497 178.32,-107.572"/>
<ellipse fill="none" stroke="#443f05" cx="366.113" cy="-338.968" rx="4" ry="4"/>
<polygon fill="#443f05" stroke="#443f05" points="178.52,-107.503 189.44,-108.505 183.248,-105.877 187.976,-104.25 187.976,-104.25 187.976,-104.25 183.248,-105.877 186.512,-99.9949 178.52,-107.503 178.52,-107.503"/>
</g>
<!-- Article -->
<g id="node19" class="node"><title>Article</title>
<ellipse fill="none" stroke="black" cx="569" cy="-254" rx="35.1455" ry="18"/>
<text text-anchor="middle" x="569" y="-250.3" font-family="Times,serif" font-size="14.00">Article</text>
</g>
<!-- User&#45;&gt;Article -->
<g id="edge3" class="edge"><title>User&#45;&gt;Article</title>
<path fill="none" stroke="#13bc60" d="M424.186,-325.99C435.305,-319.827 448.286,-312.6 460,-306 472.487,-298.964 475.179,-296.408 488,-290 502.362,-282.821 518.542,-275.654 532.643,-269.692"/>
<ellipse fill="none" stroke="#13bc60" cx="420.678" cy="-327.933" rx="4.00002" ry="4.00002"/>
<polygon fill="#13bc60" stroke="#13bc60" points="532.799,-269.627 543.761,-269.924 537.412,-267.699 542.026,-265.772 542.026,-265.772 542.026,-265.772 537.412,-267.699 540.291,-261.62 532.799,-269.627 532.799,-269.627"/>
</g>
<!-- Content -->
<g id="node25" class="node"><title>Content</title>
<ellipse fill="none" stroke="black" cx="193" cy="-166" rx="38.0212" ry="18"/>
<text text-anchor="middle" x="193" y="-162.3" font-family="Times,serif" font-size="14.00">Content</text>
</g>
<!-- User&#45;&gt;Content -->
<g id="edge2" class="edge"><title>User&#45;&gt;Content</title>
<path fill="none" stroke="#468091" d="M360.699,-335.838C321.806,-328.423 260.847,-311.059 225,-272 205.422,-250.668 197.811,-217.671 194.859,-194.37"/>
<polygon fill="#468091" stroke="#468091" points="360.718,-335.842 369.774,-342.027 365.641,-336.719 370.563,-337.596 370.563,-337.596 370.563,-337.596 365.641,-336.719 371.353,-333.166 360.718,-335.842 360.718,-335.842"/>
<polygon fill="#468091" stroke="#468091" points="194.826,-194.059 198.253,-183.642 194.302,-189.086 193.778,-184.114 193.778,-184.114 193.778,-184.114 194.302,-189.086 189.302,-184.585 194.826,-194.059 194.826,-194.059"/>
<text text-anchor="middle" x="267.5" y="-250.3" font-family="Times,serif" font-size="14.00">notify_contents</text>
</g>
<!-- Tag -->
<g id="node3" class="node"><title>Tag</title>
<ellipse fill="none" stroke="black" cx="589" cy="-342" rx="27" ry="18"/>
<text text-anchor="middle" x="589" y="-338.3" font-family="Times,serif" font-size="14.00">Tag</text>
</g>
<!-- Tag&#45;&gt;Article -->
<g id="edge4" class="edge"><title>Tag&#45;&gt;Article</title>
<path fill="none" stroke="#98740d" d="M582.742,-314.09C580.364,-303.865 577.656,-292.222 575.277,-281.989"/>
<polygon fill="#98740d" stroke="#98740d" points="582.783,-314.269 580.666,-325.029 583.916,-319.139 585.049,-324.009 585.049,-324.009 585.049,-324.009 583.916,-319.139 589.432,-322.99 582.783,-314.269 582.783,-314.269"/>
<polygon fill="#98740d" stroke="#98740d" points="575.208,-281.696 577.326,-270.936 574.076,-276.826 572.943,-271.956 572.943,-271.956 572.943,-271.956 574.076,-276.826 568.56,-272.975 575.208,-281.696 575.208,-281.696"/>
</g>
<!-- EmailNotifier -->
<g id="node4" class="node"><title>EmailNotifier</title>
<polygon fill="none" stroke="black" points="537,-469 445,-469 445,-433 537,-433 537,-469"/>
<text text-anchor="middle" x="491" y="-447.3" font-family="Times,serif" font-size="14.00">EmailNotifier</text>
</g>
<!-- Article::States -->
<g id="node5" class="node"><title>Article::States</title>
<polygon fill="none" stroke="black" stroke-dasharray="1,5" points="704,-469 610,-469 610,-433 704,-433 704,-469"/>
<text text-anchor="middle" x="657" y="-447.3" font-family="Times,serif" font-size="14.00">Article::States</text>
</g>
<!-- Resource -->
<g id="node7" class="node"><title>Resource</title>
<ellipse fill="none" stroke="black" cx="499" cy="-166" rx="43.319" ry="18"/>
<text text-anchor="middle" x="499" y="-162.3" font-family="Times,serif" font-size="14.00">Resource</text>
</g>
<!-- Sidebar -->
<g id="node8" class="node"><title>Sidebar</title>
<ellipse fill="none" stroke="black" cx="788" cy="-451" rx="37.5442" ry="18"/>
<text text-anchor="middle" x="788" y="-447.3" font-family="Times,serif" font-size="14.00">Sidebar</text>
</g>
<!-- WebNotifier -->
<g id="node9" class="node"><title>WebNotifier</title>
<polygon fill="none" stroke="black" points="944,-469 858,-469 858,-433 944,-433 944,-469"/>
<text text-anchor="middle" x="901" y="-447.3" font-family="Times,serif" font-size="14.00">WebNotifier</text>
</g>
<!-- TextFilter -->
<g id="node10" class="node"><title>TextFilter</title>
<ellipse fill="none" stroke="black" cx="1015" cy="-451" rx="46.2191" ry="18"/>
<text text-anchor="middle" x="1015" y="-447.3" font-family="Times,serif" font-size="14.00">TextFilter</text>
</g>
<!-- NotificationMailer -->
<g id="node11" class="node"><title>NotificationMailer</title>
<polygon fill="none" stroke="black" points="1201.25,-469 1082.75,-469 1082.75,-433 1201.25,-433 1201.25,-469"/>
<text text-anchor="middle" x="1142" y="-447.3" font-family="Times,serif" font-size="14.00">NotificationMailer</text>
</g>
<!-- Profile -->
<g id="node12" class="node"><title>Profile</title>
<ellipse fill="none" stroke="black" cx="1252" cy="-342" rx="34.1708" ry="18"/>
<text text-anchor="middle" x="1252" y="-338.3" font-family="Times,serif" font-size="14.00">Profile</text>
</g>
<!-- Right -->
<g id="node13" class="node"><title>Right</title>
<ellipse fill="none" stroke="black" cx="1252" cy="-451" rx="30.3206" ry="18"/>
<text text-anchor="middle" x="1252" y="-447.3" font-family="Times,serif" font-size="14.00">Right</text>
</g>
<!-- Right&#45;&gt;Profile -->
<g id="edge5" class="edge"><title>Right&#45;&gt;Profile</title>
<path fill="none" stroke="#6debc7" d="M1252,-422.611C1252,-406.613 1252,-386.489 1252,-370.476"/>
<polygon fill="#6debc7" stroke="#6debc7" points="1252,-422.809 1247.5,-432.809 1252,-427.809 1252,-432.809 1252,-432.809 1252,-432.809 1252,-427.809 1256.5,-432.809 1252,-422.809 1252,-422.809"/>
<polygon fill="#6debc7" stroke="#6debc7" points="1252,-370.149 1256.5,-360.149 1252,-365.149 1252,-360.149 1252,-360.149 1252,-360.149 1252,-365.149 1247.5,-360.149 1252,-370.149 1252,-370.149"/>
</g>
<!-- Comment -->
<g id="node14" class="node"><title>Comment</title>
<ellipse fill="none" stroke="black" cx="823" cy="-166" rx="46.2191" ry="18"/>
<text text-anchor="middle" x="823" y="-162.3" font-family="Times,serif" font-size="14.00">Comment</text>
</g>
<!-- Comment&#45;&gt;User -->
<g id="edge7" class="edge"><title>Comment&#45;&gt;User</title>
<path fill="none" stroke="#97a5d3" d="M859.889,-185.644C873.038,-194.807 882.68,-206.364 874,-218 820.538,-289.669 536.177,-326.32 433.78,-337.344"/>
<polygon fill="#97a5d3" stroke="#97a5d3" points="859.835,-185.61 853.785,-176.465 855.608,-182.94 851.381,-180.269 851.381,-180.269 851.381,-180.269 855.608,-182.94 848.978,-184.074 859.835,-185.61 859.835,-185.61"/>
<polygon fill="#97a5d3" stroke="#97a5d3" points="433.555,-337.368 423.138,-333.944 428.583,-337.893 423.611,-338.419 423.611,-338.419 423.611,-338.419 428.583,-337.893 424.083,-342.894 433.555,-337.368 433.555,-337.368"/>
<text text-anchor="middle" x="886.5" y="-250.3" font-family="Times,serif" font-size="14.00">notify_users</text>
</g>
<!-- Comment&#45;&gt;Notification -->
<g id="edge6" class="edge"><title>Comment&#45;&gt;Notification</title>
<path fill="none" stroke="#c3848b" d="M781.826,-151.289C777.196,-150.042 772.519,-148.909 768,-148 597.264,-113.665 551.202,-128.187 378,-110 347.857,-106.835 314.356,-103.087 286.583,-99.9162"/>
<ellipse fill="none" stroke="#c3848b" cx="785.69" cy="-152.385" rx="4.00001" ry="4.00001"/>
<polygon fill="#c3848b" stroke="#c3848b" points="286.561,-99.9139 277.138,-94.3057 281.594,-99.3452 276.626,-98.7765 276.626,-98.7765 276.626,-98.7765 281.594,-99.3452 276.115,-103.247 286.561,-99.9139 286.561,-99.9139"/>
</g>
<!-- Redirection -->
<g id="node16" class="node"><title>Redirection</title>
<ellipse fill="none" stroke="black" cx="605" cy="-18" rx="51.4931" ry="18"/>
<text text-anchor="middle" x="605" y="-14.3" font-family="Times,serif" font-size="14.00">Redirection</text>
</g>
<!-- Comment&#45;&gt;Redirection -->
<g id="edge8" class="edge"><title>Comment&#45;&gt;Redirection</title>
<path fill="none" stroke="#67cbb1" d="M801.941,-143.206C782.079,-123.46 750.831,-94.4147 720,-74 697.234,-58.9257 669.702,-45.6067 647.284,-35.8523"/>
<ellipse fill="none" stroke="#67cbb1" cx="804.904" cy="-146.181" rx="4.00002" ry="4.00002"/>
<polygon fill="#67cbb1" stroke="#67cbb1" points="647.216,-35.823 639.786,-27.757 642.617,-33.8592 638.019,-31.8954 638.019,-31.8954 638.019,-31.8954 642.617,-33.8592 636.252,-36.0338 647.216,-35.823 647.216,-35.823"/>
</g>
<!-- Trigger -->
<g id="node30" class="node"><title>Trigger</title>
<ellipse fill="none" stroke="black" cx="674" cy="-92" rx="37.0701" ry="18"/>
<text text-anchor="middle" x="674" y="-88.3" font-family="Times,serif" font-size="14.00">Trigger</text>
</g>
<!-- Comment&#45;&gt;Trigger -->
<g id="edge10" class="edge"><title>Comment&#45;&gt;Trigger</title>
<path fill="none" stroke="#75d4cb" d="M787.596,-147.892C763.645,-136.318 732.17,-121.109 708.427,-109.636"/>
<ellipse fill="none" stroke="#75d4cb" cx="791.373" cy="-149.717" rx="4.00002" ry="4.00002"/>
<polygon fill="#75d4cb" stroke="#75d4cb" points="708.42,-109.632 701.374,-101.23 703.918,-107.457 699.416,-105.281 699.416,-105.281 699.416,-105.281 703.918,-107.457 697.458,-109.333 708.42,-109.632 708.42,-109.632"/>
</g>
<!-- Redirect -->
<g id="node32" class="node"><title>Redirect</title>
<ellipse fill="none" stroke="black" cx="427" cy="-92" rx="39.9464" ry="18"/>
<text text-anchor="middle" x="427" y="-88.3" font-family="Times,serif" font-size="14.00">Redirect</text>
</g>
<!-- Comment&#45;&gt;Redirect -->
<g id="edge9" class="edge"><title>Comment&#45;&gt;Redirect</title>
<path fill="none" stroke="#499f24" d="M779.236,-150.872C775.454,-149.834 771.671,-148.859 768,-148 665.049,-123.912 542.153,-106.915 475.622,-98.6673"/>
<polygon fill="#499f24" stroke="#499f24" points="779.56,-150.965 787.925,-158.055 784.365,-152.348 789.17,-153.73 789.17,-153.73 789.17,-153.73 784.365,-152.348 790.414,-149.406 779.56,-150.965 779.56,-150.965"/>
<polygon fill="#499f24" stroke="#499f24" points="475.366,-98.6359 465.988,-92.9525 470.403,-98.0275 465.44,-97.419 465.44,-97.419 465.44,-97.419 470.403,-98.0275 464.893,-101.886 475.366,-98.6359 475.366,-98.6359"/>
</g>
<!-- Page -->
<g id="node15" class="node"><title>Page</title>
<ellipse fill="none" stroke="black" cx="397" cy="-451" rx="27.4223" ry="18"/>
<text text-anchor="middle" x="397" y="-447.3" font-family="Times,serif" font-size="14.00">Page</text>
</g>
<!-- Page&#45;&gt;User -->
<g id="edge12" class="edge"><title>Page&#45;&gt;User</title>
<path fill="none" stroke="#47560e" d="M397,-422.611C397,-406.613 397,-386.489 397,-370.476"/>
<polygon fill="#47560e" stroke="#47560e" points="397,-422.809 392.5,-432.809 397,-427.809 397,-432.809 397,-432.809 397,-432.809 397,-427.809 401.5,-432.809 397,-422.809 397,-422.809"/>
<polygon fill="#47560e" stroke="#47560e" points="397,-370.149 401.5,-360.149 397,-365.149 397,-360.149 397,-360.149 397,-360.149 397,-365.149 392.5,-360.149 397,-370.149 397,-370.149"/>
<text text-anchor="middle" x="430.5" y="-382.3" font-family="Times,serif" font-size="14.00">notify_users</text>
</g>
<!-- Page&#45;&gt;Notification -->
<g id="edge11" class="edge"><title>Page&#45;&gt;Notification</title>
<path fill="none" stroke="#4b1425" d="M380.271,-428.34C374.484,-422.186 367.539,-416.061 360,-412 288.284,-373.374 0,-424.456 0,-343 0,-343 0,-343 0,-165 0,-129.853 100.128,-109.633 167.384,-100.015"/>
<ellipse fill="none" stroke="#4b1425" cx="383.002" cy="-431.431" rx="4.00002" ry="4.00002"/>
<polygon fill="#4b1425" stroke="#4b1425" points="167.559,-99.9912 178.083,-103.075 172.512,-99.3044 177.464,-98.6175 177.464,-98.6175 177.464,-98.6175 172.512,-99.3044 176.846,-94.1602 167.559,-99.9912 167.559,-99.9912"/>
</g>
<!-- Page&#45;&gt;Redirection -->
<g id="edge13" class="edge"><title>Page&#45;&gt;Redirection</title>
<path fill="none" stroke="#5ed3d9" d="M414.17,-427.897C420.318,-421.601 427.783,-415.506 436,-412 489.993,-388.966 905.78,-401.494 964,-394 1066.13,-380.855 1190,-445.97 1190,-343 1190,-343 1190,-343 1190,-91 1190,-38.7239 817.259,-24.0282 666.84,-20.2261"/>
<ellipse fill="none" stroke="#5ed3d9" cx="411.168" cy="-431.207" rx="4.00002" ry="4.00002"/>
<polygon fill="#5ed3d9" stroke="#5ed3d9" points="666.399,-20.2154 656.512,-15.4722 661.401,-20.0931 656.402,-19.9708 656.402,-19.9708 656.402,-19.9708 661.401,-20.0931 656.292,-24.4695 666.399,-20.2154 666.399,-20.2154"/>
</g>
<!-- Page&#45;&gt;Trigger -->
<g id="edge15" class="edge"><title>Page&#45;&gt;Trigger</title>
<path fill="none" stroke="#8edcf8" d="M414.37,-428.338C420.53,-422.068 427.951,-415.875 436,-412 546.787,-358.659 985,-465.96 985,-343 985,-343 985,-343 985,-165 985,-111.477 807.963,-97.733 721.034,-94.2103"/>
<ellipse fill="none" stroke="#8edcf8" cx="411.362" cy="-431.608" rx="4.00002" ry="4.00002"/>
<polygon fill="#8edcf8" stroke="#8edcf8" points="720.89,-94.205 711.066,-89.3325 715.894,-94.0172 710.897,-93.8294 710.897,-93.8294 710.897,-93.8294 715.894,-94.0172 710.728,-98.3262 720.89,-94.205 720.89,-94.205"/>
</g>
<!-- Page&#45;&gt;Redirect -->
<g id="edge14" class="edge"><title>Page&#45;&gt;Redirect</title>
<path fill="none" stroke="#baa59f" d="M377.082,-427.175C371.829,-421.843 365.955,-416.433 360,-412 278.36,-351.218 238.592,-366.847 157,-306 140.119,-293.411 131.913,-291.515 124,-272 117.988,-257.173 122.045,-251.88 124,-236 128.926,-195.987 116.766,-175.761 146,-148 162.741,-132.103 303.146,-110.317 378.93,-99.5587"/>
<polygon fill="#baa59f" stroke="#baa59f" points="377.415,-427.529 380.996,-437.893 380.844,-431.168 384.272,-434.808 384.272,-434.808 384.272,-434.808 380.844,-431.168 387.548,-431.722 377.415,-427.529 377.415,-427.529"/>
<polygon fill="#baa59f" stroke="#baa59f" points="379.273,-99.5105 389.803,-102.572 384.224,-98.8131 389.175,-98.1157 389.175,-98.1157 389.175,-98.1157 384.224,-98.8131 388.547,-93.6597 379.273,-99.5105 379.273,-99.5105"/>
</g>
<!-- Feedback::States -->
<g id="node17" class="node"><title>Feedback::States</title>
<polygon fill="none" stroke="black" stroke-dasharray="1,5" points="1409,-469 1301,-469 1301,-433 1409,-433 1409,-469"/>
<text text-anchor="middle" x="1355" y="-447.3" font-family="Times,serif" font-size="14.00">Feedback::States</text>
</g>
<!-- BlogSweeper -->
<g id="node18" class="node"><title>BlogSweeper</title>
<polygon fill="none" stroke="black" points="1516.25,-469 1427.75,-469 1427.75,-433 1516.25,-433 1516.25,-469"/>
<text text-anchor="middle" x="1472" y="-447.3" font-family="Times,serif" font-size="14.00">BlogSweeper</text>
</g>
<!-- Article&#45;&gt;User -->
<g id="edge17" class="edge"><title>Article&#45;&gt;User</title>
<path fill="none" stroke="#c5c2a8" d="M536.462,-272.443C526.84,-277.848 516.376,-283.972 507,-290 496.83,-296.538 495.589,-300.165 485,-306 467.666,-315.552 447.176,-323.86 430.331,-329.981"/>
<polygon fill="#c5c2a8" stroke="#c5c2a8" points="536.62,-272.356 547.548,-271.444 540.993,-269.932 545.366,-267.509 545.366,-267.509 545.366,-267.509 540.993,-269.932 543.185,-263.573 536.62,-272.356 536.62,-272.356"/>
<polygon fill="#c5c2a8" stroke="#c5c2a8" points="430.313,-329.988 419.384,-329.084 425.599,-331.657 420.886,-333.326 420.886,-333.326 420.886,-333.326 425.599,-331.657 422.388,-337.568 430.313,-329.988 430.313,-329.988"/>
<text text-anchor="middle" x="540.5" y="-294.3" font-family="Times,serif" font-size="14.00">notify_users</text>
</g>
<!-- Article&#45;&gt;Notification -->
<g id="edge16" class="edge"><title>Article&#45;&gt;Notification</title>
<path fill="none" stroke="#996388" d="M531.411,-242.234C522.181,-239.891 512.284,-237.63 503,-236 461.663,-228.744 352.387,-237.068 315,-218 275.067,-197.633 249.52,-149.727 236.76,-119.487"/>
<ellipse fill="none" stroke="#996388" cx="535.448" cy="-243.288" rx="4.00001" ry="4.00001"/>
<polygon fill="#996388" stroke="#996388" points="236.663,-119.248 237.093,-108.291 234.792,-114.611 232.92,-109.975 232.92,-109.975 232.92,-109.975 234.792,-114.611 228.747,-111.659 236.663,-119.248 236.663,-119.248"/>
</g>
<!-- Article&#45;&gt;Resource -->
<g id="edge24" class="edge"><title>Article&#45;&gt;Resource</title>
<path fill="none" stroke="#ab8667" d="M546.374,-232.439C541.761,-227.858 537.076,-222.901 533,-218 526.334,-209.984 519.791,-200.635 514.252,-192.146"/>
<ellipse fill="none" stroke="#ab8667" cx="549.253" cy="-235.226" rx="4.00002" ry="4.00002"/>
<polygon fill="#ab8667" stroke="#ab8667" points="514.249,-192.141 512.678,-181.288 511.565,-187.922 508.882,-183.704 508.882,-183.704 508.882,-183.704 511.565,-187.922 505.085,-186.119 514.249,-192.141 514.249,-192.141"/>
</g>
<!-- Article&#45;&gt;Comment -->
<g id="edge27" class="edge"><title>Article&#45;&gt;Comment</title>
<path fill="none" stroke="#0fd007" d="M611.711,-250.904C688.162,-246.712 841.95,-236.111 858,-218 865.868,-209.122 860.428,-198.409 851.701,-189.098"/>
<ellipse fill="none" stroke="#0fd007" cx="607.667" cy="-251.122" rx="4" ry="4"/>
<polygon fill="#0fd007" stroke="#0fd007" points="851.454,-188.865 847.28,-178.724 847.821,-185.429 844.188,-181.994 844.188,-181.994 844.188,-181.994 847.821,-185.429 841.096,-185.263 851.454,-188.865 851.454,-188.865"/>
</g>
<!-- Article&#45;&gt;Comment -->
<g id="edge28" class="edge"><title>Article&#45;&gt;Comment</title>
<path fill="none" stroke="#cf316b" d="M610.96,-247.767C641.242,-242.874 682.518,-233.861 716,-218 726.604,-212.977 726.81,-207.818 737,-202 750.421,-194.337 765.852,-187.505 779.904,-181.956"/>
<ellipse fill="none" stroke="#cf316b" cx="606.679" cy="-248.429" rx="4.00001" ry="4.00001"/>
<polygon fill="#cf316b" stroke="#cf316b" points="780.035,-181.906 790.983,-182.526 784.703,-180.115 789.371,-178.325 789.371,-178.325 789.371,-178.325 784.703,-180.115 787.76,-174.123 780.035,-181.906 780.035,-181.906"/>
<text text-anchor="middle" x="795.5" y="-206.3" font-family="Times,serif" font-size="14.00">published_comments</text>
</g>
<!-- Article&#45;&gt;Redirection -->
<g id="edge18" class="edge"><title>Article&#45;&gt;Redirection</title>
<path fill="none" stroke="#41adbe" d="M611.371,-249.528C692.986,-242.649 864.809,-227.164 874,-218 955.23,-137.002 751.09,-62.5569 653.495,-32.749"/>
<ellipse fill="none" stroke="#41adbe" cx="607.278" cy="-249.871" rx="4" ry="4"/>
<polygon fill="#41adbe" stroke="#41adbe" points="653.408,-32.7227 645.132,-25.5287 648.62,-31.28 643.833,-29.8374 643.833,-29.8374 643.833,-29.8374 648.62,-31.28 642.535,-34.146 653.408,-32.7227 653.408,-32.7227"/>
</g>
<!-- Categorization -->
<g id="node22" class="node"><title>Categorization</title>
<ellipse fill="none" stroke="black" cx="1010" cy="-92" rx="62.0922" ry="18"/>
<text text-anchor="middle" x="1010" y="-88.3" font-family="Times,serif" font-size="14.00">Categorization</text>
</g>
<!-- Article&#45;&gt;Categorization -->
<g id="edge25" class="edge"><title>Article&#45;&gt;Categorization</title>
<path fill="none" stroke="#0aeb96" d="M611.569,-249.53C700.326,-242.174 898.04,-225.105 911,-218 951.961,-195.545 981.936,-148.384 997.611,-118.843"/>
<ellipse fill="none" stroke="#0aeb96" cx="607.316" cy="-249.882" rx="4" ry="4"/>
<polygon fill="#0aeb96" stroke="#0aeb96" points="997.624,-118.818 1006.2,-111.981 999.909,-114.371 1002.19,-109.924 1002.19,-109.924 1002.19,-109.924 999.909,-114.371 998.191,-107.867 997.624,-118.818 997.624,-118.818"/>
</g>
<!-- Ping -->
<g id="node26" class="node"><title>Ping</title>
<ellipse fill="none" stroke="black" cx="732" cy="-166" rx="27" ry="18"/>
<text text-anchor="middle" x="732" y="-162.3" font-family="Times,serif" font-size="14.00">Ping</text>
</g>
<!-- Article&#45;&gt;Ping -->
<g id="edge21" class="edge"><title>Article&#45;&gt;Ping</title>
<path fill="none" stroke="#cf1abe" d="M611.051,-247.968C636.494,-243.34 668.62,-234.555 693,-218 702.783,-211.357 711.156,-201.46 717.607,-192.148"/>
<ellipse fill="none" stroke="#cf1abe" cx="606.986" cy="-248.659" rx="4.00001" ry="4.00001"/>
<polygon fill="#cf1abe" stroke="#cf1abe" points="717.754,-191.921 726.964,-185.969 720.47,-187.723 723.186,-183.525 723.186,-183.525 723.186,-183.525 720.47,-187.723 719.408,-181.08 717.754,-191.921 717.754,-191.921"/>
</g>
<!-- Feedback -->
<g id="node27" class="node"><title>Feedback</title>
<ellipse fill="none" stroke="black" cx="605" cy="-166" rx="44.2946" ry="18"/>
<text text-anchor="middle" x="605" y="-162.3" font-family="Times,serif" font-size="14.00">Feedback</text>
</g>
<!-- Article&#45;&gt;Feedback -->
<g id="edge23" class="edge"><title>Article&#45;&gt;Feedback</title>
<path fill="none" stroke="#21b870" d="M545.597,-232.133C538.081,-222.877 533.062,-211.87 539,-202 544.215,-193.331 552.379,-186.696 561.211,-181.66"/>
<ellipse fill="none" stroke="#21b870" cx="548.416" cy="-235.255" rx="4.00002" ry="4.00002"/>
<polygon fill="#21b870" stroke="#21b870" points="561.251,-181.64 572.206,-181.159 565.716,-179.39 570.182,-177.14 570.182,-177.14 570.182,-177.14 565.716,-179.39 568.157,-173.121 561.251,-181.64 561.251,-181.64"/>
</g>
<!-- Article&#45;&gt;Feedback -->
<g id="edge30" class="edge"><title>Article&#45;&gt;Feedback</title>
<path fill="none" stroke="#4610ca" d="M557.995,-228.547C555.656,-219.838 554.95,-210.17 559,-202 561.741,-196.471 565.82,-191.578 570.435,-187.335"/>
<ellipse fill="none" stroke="#4610ca" cx="559.263" cy="-232.406" rx="4.00001" ry="4.00001"/>
<polygon fill="#4610ca" stroke="#4610ca" points="570.768,-187.068 581.384,-184.321 574.668,-183.94 578.568,-180.811 578.568,-180.811 578.568,-180.811 574.668,-183.94 575.753,-177.301 570.768,-187.068 570.768,-187.068"/>
<text text-anchor="middle" x="613.5" y="-206.3" font-family="Times,serif" font-size="14.00">published_feedback</text>
</g>
<!-- Category -->
<g id="node28" class="node"><title>Category</title>
<ellipse fill="none" stroke="black" cx="1056" cy="-166" rx="42.3456" ry="18"/>
<text text-anchor="middle" x="1056" y="-162.3" font-family="Times,serif" font-size="14.00">Category</text>
</g>
<!-- Article&#45;&gt;Category -->
<g id="edge26" class="edge"><title>Article&#45;&gt;Category</title>
<path fill="none" stroke="#ba5103" d="M613.927,-251.255C702.607,-247.441 897.092,-237.131 961,-218 984.059,-211.097 1007.92,-198.262 1025.96,-187.195"/>
<polygon fill="#ba5103" stroke="#ba5103" points="613.897,-251.257 603.716,-247.182 608.901,-251.467 603.906,-251.678 603.906,-251.678 603.906,-251.678 608.901,-251.467 604.095,-256.174 613.897,-251.257 613.897,-251.257"/>
<polygon fill="#ba5103" stroke="#ba5103" points="1026.37,-186.939 1037.23,-185.418 1030.6,-184.274 1034.83,-181.61 1034.83,-181.61 1034.83,-181.61 1030.6,-184.274 1032.43,-177.802 1026.37,-186.939 1026.37,-186.939"/>
</g>
<!-- Trackback -->
<g id="node29" class="node"><title>Trackback</title>
<ellipse fill="none" stroke="black" cx="342" cy="-166" rx="48.1437" ry="18"/>
<text text-anchor="middle" x="342" y="-162.3" font-family="Times,serif" font-size="14.00">Trackback</text>
</g>
<!-- Article&#45;&gt;Trackback -->
<g id="edge22" class="edge"><title>Article&#45;&gt;Trackback</title>
<path fill="none" stroke="#9cc2fc" d="M534.277,-239.797C529.53,-238.334 524.68,-237.01 520,-236 477.029,-226.727 352.637,-250.468 323,-218 316.407,-210.777 318.251,-201.058 322.787,-192.043"/>
<ellipse fill="none" stroke="#9cc2fc" cx="538.319" cy="-241.119" rx="4.00001" ry="4.00001"/>
<polygon fill="#9cc2fc" stroke="#9cc2fc" points="322.846,-191.944 331.862,-185.702 325.427,-187.662 328.008,-183.379 328.008,-183.379 328.008,-183.379 325.427,-187.662 324.154,-181.057 322.846,-191.944 322.846,-191.944"/>
</g>
<!-- Article&#45;&gt;Trackback -->
<g id="edge29" class="edge"><title>Article&#45;&gt;Trackback</title>
<path fill="none" stroke="#bb0d7f" d="M534.267,-239.842C529.522,-238.372 524.675,-237.034 520,-236 481.397,-227.463 369.791,-247.075 343,-218 337.198,-211.703 335.636,-202.888 335.939,-194.354"/>
<ellipse fill="none" stroke="#bb0d7f" cx="538.309" cy="-241.167" rx="4.00001" ry="4.00001"/>
<polygon fill="#bb0d7f" stroke="#bb0d7f" points="335.955,-194.211 341.545,-184.777 336.514,-189.243 337.073,-184.274 337.073,-184.274 337.073,-184.274 336.514,-189.243 332.602,-183.771 335.955,-194.211 335.955,-194.211"/>
<text text-anchor="middle" x="402" y="-206.3" font-family="Times,serif" font-size="14.00">published_trackbacks</text>
</g>
<!-- Article&#45;&gt;Trigger -->
<g id="edge20" class="edge"><title>Article&#45;&gt;Trigger</title>
<path fill="none" stroke="#bafdab" d="M611.602,-248.827C632.02,-244.479 654.842,-235.692 668,-218 688.947,-189.835 685.845,-147.437 680.706,-119.987"/>
<ellipse fill="none" stroke="#bafdab" cx="607.557" cy="-249.591" rx="4.00001" ry="4.00001"/>
<polygon fill="#bafdab" stroke="#bafdab" points="680.646,-119.702 683.008,-108.994 679.624,-114.808 678.603,-109.913 678.603,-109.913 678.603,-109.913 679.624,-114.808 674.198,-110.833 680.646,-119.702 680.646,-119.702"/>
</g>
<!-- Article&#45;&gt;Redirect -->
<g id="edge19" class="edge"><title>Article&#45;&gt;Redirect</title>
<path fill="none" stroke="#f8b756" d="M534.255,-237.499C502.071,-222.462 457.497,-199.68 446,-184 432.472,-165.551 428.1,-139.632 426.892,-120.173"/>
<polygon fill="#f8b756" stroke="#f8b756" points="534.3,-237.52 541.493,-245.797 538.84,-239.615 543.379,-241.711 543.379,-241.711 543.379,-241.711 538.84,-239.615 545.265,-237.625 534.3,-237.52 534.3,-237.52"/>
<polygon fill="#f8b756" stroke="#f8b756" points="426.889,-120.108 431.005,-109.943 426.699,-115.111 426.508,-110.115 426.508,-110.115 426.508,-110.115 426.699,-115.111 422.011,-110.287 426.889,-120.108 426.889,-120.108"/>
</g>
<!-- PageCache -->
<g id="node20" class="node"><title>PageCache</title>
<polygon fill="none" stroke="black" points="1611.25,-469 1534.75,-469 1534.75,-433 1611.25,-433 1611.25,-469"/>
<text text-anchor="middle" x="1573" y="-447.3" font-family="Times,serif" font-size="14.00">PageCache</text>
</g>
<!-- Blog -->
<g id="node21" class="node"><title>Blog</title>
<ellipse fill="none" stroke="black" cx="1657" cy="-451" rx="27.4223" ry="18"/>
<text text-anchor="middle" x="1657" y="-447.3" font-family="Times,serif" font-size="14.00">Blog</text>
</g>
<!-- ConfigManager -->
<g id="node23" class="node"><title>ConfigManager</title>
<polygon fill="none" stroke="black" stroke-dasharray="1,5" points="1805.25,-469 1702.75,-469 1702.75,-433 1805.25,-433 1805.25,-469"/>
<text text-anchor="middle" x="1754" y="-447.3" font-family="Times,serif" font-size="14.00">ConfigManager</text>
</g>
<!-- PostType -->
<g id="node24" class="node"><title>PostType</title>
<ellipse fill="none" stroke="black" cx="1868" cy="-451" rx="44.2946" ry="18"/>
<text text-anchor="middle" x="1868" y="-447.3" font-family="Times,serif" font-size="14.00">PostType</text>
</g>
<!-- Content&#45;&gt;User -->
<g id="edge32" class="edge"><title>Content&#45;&gt;User</title>
<path fill="none" stroke="#60b30b" d="M166.259,-188.589C142.422,-210.488 114.135,-244.92 134,-272 160.702,-308.4 294.315,-328.925 360.178,-336.978"/>
<polygon fill="#60b30b" stroke="#60b30b" points="166.283,-188.568 176.755,-185.316 170.029,-185.256 173.775,-181.945 173.775,-181.945 173.775,-181.945 170.029,-185.256 170.794,-178.573 166.283,-188.568 166.283,-188.568"/>
<polygon fill="#60b30b" stroke="#60b30b" points="360.211,-336.982 369.609,-342.632 365.176,-337.573 370.141,-338.164 370.141,-338.164 370.141,-338.164 365.176,-337.573 370.673,-333.695 360.211,-336.982 360.211,-336.982"/>
<text text-anchor="middle" x="167.5" y="-250.3" font-family="Times,serif" font-size="14.00">notify_users</text>
</g>
<!-- Content&#45;&gt;Notification -->
<g id="edge31" class="edge"><title>Content&#45;&gt;Notification</title>
<path fill="none" stroke="#52e90c" d="M204.373,-140.916C207.651,-133.975 211.243,-126.368 214.581,-119.3"/>
<ellipse fill="none" stroke="#52e90c" cx="202.594" cy="-144.684" rx="4.00002" ry="4.00002"/>
<polygon fill="#52e90c" stroke="#52e90c" points="214.651,-119.151 222.99,-112.03 216.786,-114.63 218.921,-110.109 218.921,-110.109 218.921,-110.109 216.786,-114.63 214.852,-108.187 214.651,-119.151 214.651,-119.151"/>
</g>
<!-- Content&#45;&gt;Redirection -->
<g id="edge33" class="edge"><title>Content&#45;&gt;Redirection</title>
<path fill="none" stroke="#e7752d" d="M175.147,-142.206C161.683,-122.085 148.169,-93.066 165,-74 189.697,-46.024 429.399,-28.8747 544.243,-22.2006"/>
<ellipse fill="none" stroke="#e7752d" cx="177.56" cy="-145.647" rx="4.00002" ry="4.00002"/>
<polygon fill="#e7752d" stroke="#e7752d" points="544.307,-22.197 554.549,-26.1176 549.299,-21.911 554.291,-21.6249 554.291,-21.6249 554.291,-21.6249 549.299,-21.911 554.034,-17.1323 544.307,-22.197 544.307,-22.197"/>
</g>
<!-- Content&#45;&gt;Trigger -->
<g id="edge35" class="edge"><title>Content&#45;&gt;Trigger</title>
<path fill="none" stroke="#ee891c" d="M235.77,-156.709C251.254,-153.81 268.891,-150.626 285,-148 408.833,-127.814 555.557,-108.239 628.335,-98.8203"/>
<ellipse fill="none" stroke="#ee891c" cx="231.82" cy="-157.453" rx="4.00001" ry="4.00001"/>
<polygon fill="#ee891c" stroke="#ee891c" points="628.607,-98.7853 639.101,-101.968 633.566,-98.1453 638.525,-97.5054 638.525,-97.5054 638.525,-97.5054 633.566,-98.1453 637.949,-93.0424 628.607,-98.7853 628.607,-98.7853"/>
</g>
<!-- Content&#45;&gt;Redirect -->
<g id="edge34" class="edge"><title>Content&#45;&gt;Redirect</title>
<path fill="none" stroke="#4a8a15" d="M233.667,-152.487C276.078,-139.437 342.235,-119.082 385.099,-105.893"/>
<polygon fill="#4a8a15" stroke="#4a8a15" points="233.631,-152.498 222.75,-151.138 228.852,-153.968 224.073,-155.439 224.073,-155.439 224.073,-155.439 228.852,-153.968 225.397,-159.74 233.631,-152.498 233.631,-152.498"/>
<polygon fill="#4a8a15" stroke="#4a8a15" points="385.112,-105.889 395.993,-107.249 389.891,-104.418 394.67,-102.948 394.67,-102.948 394.67,-102.948 389.891,-104.418 393.346,-98.6468 385.112,-105.889 385.112,-105.889"/>
</g>
<!-- Feedback&#45;&gt;User -->
<g id="edge37" class="edge"><title>Feedback&#45;&gt;User</title>
<path fill="none" stroke="#fe6e3b" d="M562.922,-181.232C558.922,-182.286 554.903,-183.234 551,-184 527.15,-188.678 349.464,-184.121 333,-202 328.183,-207.231 328.498,-212.496 333,-218 358.552,-249.237 396.448,-204.763 422,-236 440.749,-258.92 426.825,-293.553 413.421,-316.704"/>
<polygon fill="#fe6e3b" stroke="#fe6e3b" points="563.131,-181.172 573.981,-182.765 567.94,-179.805 572.75,-178.437 572.75,-178.437 572.75,-178.437 567.94,-179.805 571.519,-174.109 563.131,-181.172 563.131,-181.172"/>
<polygon fill="#fe6e3b" stroke="#fe6e3b" points="413.405,-316.731 404.349,-322.916 410.797,-320.997 408.189,-325.263 408.189,-325.263 408.189,-325.263 410.797,-320.997 412.028,-327.61 413.405,-316.731 413.405,-316.731"/>
<text text-anchor="middle" x="465.5" y="-250.3" font-family="Times,serif" font-size="14.00">notify_users</text>
</g>
<!-- Feedback&#45;&gt;Notification -->
<g id="edge36" class="edge"><title>Feedback&#45;&gt;Notification</title>
<path fill="none" stroke="#f3fd0e" d="M564.182,-151.504C559.756,-150.234 555.3,-149.037 551,-148 544.518,-146.437 374.642,-117.813 283.526,-102.495"/>
<ellipse fill="none" stroke="#f3fd0e" cx="568.239" cy="-152.709" rx="4.00001" ry="4.00001"/>
<polygon fill="#f3fd0e" stroke="#f3fd0e" points="283.486,-102.488 274.37,-96.3924 278.555,-101.659 273.624,-100.83 273.624,-100.83 273.624,-100.83 278.555,-101.659 272.878,-105.268 283.486,-102.488 283.486,-102.488"/>
</g>
<!-- Feedback&#45;&gt;Redirection -->
<g id="edge38" class="edge"><title>Feedback&#45;&gt;Redirection</title>
<path fill="none" stroke="#086264" d="M605,-139.8C605,-113.827 605,-73.4489 605,-46.6216"/>
<ellipse fill="none" stroke="#086264" cx="605" cy="-143.966" rx="4" ry="4"/>
<polygon fill="#086264" stroke="#086264" points="605,-46.3779 609.5,-36.3778 605,-41.3779 605,-36.3779 605,-36.3779 605,-36.3779 605,-41.3779 600.5,-36.3779 605,-46.3779 605,-46.3779"/>
</g>
<!-- Feedback&#45;&gt;Trigger -->
<g id="edge40" class="edge"><title>Feedback&#45;&gt;Trigger</title>
<path fill="none" stroke="#c8f44a" d="M625.944,-143.146C634.115,-134.619 643.493,-124.834 651.782,-116.184"/>
<ellipse fill="none" stroke="#c8f44a" cx="623.081" cy="-146.133" rx="4.00002" ry="4.00002"/>
<polygon fill="#c8f44a" stroke="#c8f44a" points="651.81,-116.154 661.978,-112.048 655.27,-112.544 658.729,-108.934 658.729,-108.934 658.729,-108.934 655.27,-112.544 655.481,-105.821 651.81,-116.154 651.81,-116.154"/>
</g>
<!-- Feedback&#45;&gt;Redirect -->
<g id="edge39" class="edge"><title>Feedback&#45;&gt;Redirect</title>
<path fill="none" stroke="#3a3040" d="M565.399,-148.981C535.584,-136.922 494.944,-120.483 465.421,-108.541"/>
<polygon fill="#3a3040" stroke="#3a3040" points="565.534,-149.036 573.117,-156.958 570.17,-150.911 574.805,-152.786 574.805,-152.786 574.805,-152.786 570.17,-150.911 576.492,-148.615 565.534,-149.036 565.534,-149.036"/>
<polygon fill="#3a3040" stroke="#3a3040" points="465.137,-108.426 457.554,-100.505 460.501,-106.551 455.866,-104.676 455.866,-104.676 455.866,-104.676 460.501,-106.551 454.179,-108.848 465.137,-108.426 465.137,-108.426"/>
</g>
<!-- Category&#45;&gt;Categorization -->
<g id="edge42" class="edge"><title>Category&#45;&gt;Categorization</title>
<path fill="none" stroke="#0a506d" d="M1040.99,-141.509C1036.39,-134.311 1031.31,-126.352 1026.61,-118.998"/>
<ellipse fill="none" stroke="#0a506d" cx="1043.18" cy="-144.93" rx="4.00002" ry="4.00002"/>
<polygon fill="#0a506d" stroke="#0a506d" points="1026.31,-118.536 1024.72,-107.686 1023.62,-114.322 1020.93,-110.109 1020.93,-110.109 1020.93,-110.109 1023.62,-114.322 1017.14,-112.531 1026.31,-118.536 1026.31,-118.536"/>
</g>
<!-- Category&#45;&gt;Category -->
<g id="edge41" class="edge"><title>Category&#45;&gt;Category</title>
<path fill="none" stroke="#fdc501" d="M1103.59,-172.178C1110.97,-171.25 1116,-169.19 1116,-166 1116,-163.142 1111.97,-161.191 1105.82,-160.149"/>
<ellipse fill="none" stroke="#fdc501" cx="1099.52" cy="-172.457" rx="4" ry="4"/>
<polygon fill="#fdc501" stroke="#fdc501" points="1105.49,-160.121 1095.91,-154.786 1100.51,-159.695 1095.53,-159.27 1095.53,-159.27 1095.53,-159.27 1100.51,-159.695 1095.14,-163.754 1105.49,-160.121 1105.49,-160.121"/>
<text text-anchor="middle" x="1138.5" y="-162.3" font-family="Times,serif" font-size="14.00">children</text>
</g>
<!-- Trackback&#45;&gt;User -->
<g id="edge44" class="edge"><title>Trackback&#45;&gt;User</title>
<path fill="none" stroke="#19fae7" d="M295.189,-181.414C275.6,-190.056 259.533,-202.41 270,-218 281.777,-235.542 297.117,-223.296 314,-236 343.34,-258.079 368.084,-292.908 382.726,-316.335"/>
<polygon fill="#19fae7" stroke="#19fae7" points="295.396,-181.331 306.353,-181.763 300.033,-179.46 304.67,-177.589 304.67,-177.589 304.67,-177.589 300.033,-179.46 302.986,-173.416 295.396,-181.331 295.396,-181.331"/>
<polygon fill="#19fae7" stroke="#19fae7" points="382.806,-316.465 384.168,-327.346 385.408,-320.735 388.01,-325.004 388.01,-325.004 388.01,-325.004 385.408,-320.735 391.853,-322.662 382.806,-316.465 382.806,-316.465"/>
<text text-anchor="middle" x="384.5" y="-250.3" font-family="Times,serif" font-size="14.00">notify_users</text>
</g>
<!-- Trackback&#45;&gt;Notification -->
<g id="edge43" class="edge"><title>Trackback&#45;&gt;Notification</title>
<path fill="none" stroke="#f5f658" d="M311.255,-145.751C295.405,-135.827 276.065,-123.719 259.913,-113.607"/>
<ellipse fill="none" stroke="#f5f658" cx="315.06" cy="-148.133" rx="4.00002" ry="4.00002"/>
<polygon fill="#f5f658" stroke="#f5f658" points="259.786,-113.527 253.699,-104.406 255.548,-110.874 251.311,-108.221 251.311,-108.221 251.311,-108.221 255.548,-110.874 248.923,-112.035 259.786,-113.527 259.786,-113.527"/>
</g>
<!-- Trackback&#45;&gt;Redirection -->
<g id="edge45" class="edge"><title>Trackback&#45;&gt;Redirection</title>
<path fill="none" stroke="#c4ca8e" d="M345.49,-139.838C349.681,-119.204 358.734,-90.7583 378,-74 403.038,-52.2211 488.85,-35.8087 547.489,-26.8031"/>
<ellipse fill="none" stroke="#c4ca8e" cx="344.741" cy="-143.937" rx="4.00001" ry="4.00001"/>
<polygon fill="#c4ca8e" stroke="#c4ca8e" points="547.85,-26.7489 558.408,-29.7115 552.795,-26.0052 557.739,-25.2615 557.739,-25.2615 557.739,-25.2615 552.795,-26.0052 557.07,-20.8116 547.85,-26.7489 547.85,-26.7489"/>
</g>
<!-- Trackback&#45;&gt;Trigger -->
<g id="edge47" class="edge"><title>Trackback&#45;&gt;Trigger</title>
<path fill="none" stroke="#a2f70b" d="M390.441,-154.495C455.246,-140.441 569.154,-115.738 631.042,-102.316"/>
<ellipse fill="none" stroke="#a2f70b" cx="386.287" cy="-155.396" rx="4.00001" ry="4.00001"/>
<polygon fill="#a2f70b" stroke="#a2f70b" points="631.104,-102.303 641.83,-104.581 635.99,-101.243 640.876,-100.183 640.876,-100.183 640.876,-100.183 635.99,-101.243 639.923,-95.7857 631.104,-102.303 631.104,-102.303"/>
</g>
<!-- Trackback&#45;&gt;Redirect -->
<g id="edge46" class="edge"><title>Trackback&#45;&gt;Redirect</title>
<path fill="none" stroke="#cc003c" d="M368.274,-142.745C378.668,-133.94 390.585,-123.845 400.957,-115.06"/>
<polygon fill="#cc003c" stroke="#cc003c" points="368.074,-142.914 357.535,-145.943 364.259,-146.145 360.444,-149.377 360.444,-149.377 360.444,-149.377 364.259,-146.145 363.352,-152.811 368.074,-142.914 368.074,-142.914"/>
<polygon fill="#cc003c" stroke="#cc003c" points="401.254,-114.809 411.793,-111.779 405.069,-111.577 408.884,-108.345 408.884,-108.345 408.884,-108.345 405.069,-111.577 405.976,-104.911 401.254,-114.809 401.254,-114.809"/>
</g>
<!-- Theme -->
<g id="node31" class="node"><title>Theme</title>
<polygon fill="none" stroke="black" points="1985.25,-469 1930.75,-469 1930.75,-433 1985.25,-433 1985.25,-469"/>
<text text-anchor="middle" x="1958" y="-447.3" font-family="Times,serif" font-size="14.00">Theme</text>
</g>
<!-- Redirect&#45;&gt;Redirection -->
<g id="edge48" class="edge"><title>Redirect&#45;&gt;Redirection</title>
<path fill="none" stroke="#5597b3" d="M463.429,-76.2648C492.407,-64.5434 532.974,-48.1342 563.258,-35.8843"/>
<ellipse fill="none" stroke="#5597b3" cx="459.703" cy="-77.7718" rx="4.00002" ry="4.00002"/>
<polygon fill="#5597b3" stroke="#5597b3" points="563.432,-35.8143 574.389,-36.2361 568.067,-33.9393 572.702,-32.0644 572.702,-32.0644 572.702,-32.0644 568.067,-33.9393 571.014,-27.8928 563.432,-35.8143 563.432,-35.8143"/>
</g>
</g>
</svg>
